<svg version="1.1" xmlns="http://www.w3.org/2000/svg" xmlns:xlink="http://www.w3.org/1999/xlink" width="589.85144" height="436.56991" viewBox="0,0,589.85144,436.56991"><g transform="translate(-72.30844,91.51764)"><g data-paper-data="{&quot;isPaintingLayer&quot;:true}" fill-rule="nonzero" stroke-linecap="butt" stroke-linejoin="miter" stroke-miterlimit="10" stroke-dasharray="" stroke-dashoffset="0" style="mix-blend-mode: normal"><g><path d="M658.47531,138.22117v66.08872h-203.08834v-66.08872z" fill="#a9a9a9" stroke="none" stroke-width="0"/><path d="M659.65988,136.81845v67.59159h-205.10957v-67.59159z" fill="none" stroke="#000000" stroke-width="5"/></g><path d="M75.09897,341.24323v-67.59159h395.97502v67.59159z" fill="none" stroke="#000000" stroke-width="5"/><g><path d="M454.83317,138.62728h66.08872v203.08834h-66.08872z" fill="#a9a9a9" stroke="none" stroke-width="0"/><path d="M453.43044,137.4427h67.59159v205.10957h-67.59159z" fill="none" stroke="#000000" stroke-width="5"/></g><path d="M87.28531,74.79586v-67.59159h525.89394v67.59159z" fill="none" stroke="#000000" stroke-width="5"/><g><path d="M373.83317,-86.80508h66.08872v379.33426h-66.08872z" fill="#a9a9a9" stroke="none" stroke-width="0"/><path d="M372.43044,-89.01764h67.59159v383.10957h-67.59159z" fill="none" stroke="#000000" stroke-width="5"/></g><g><path d="M76.21117,-86.80508h66.08872v379.33426h-66.08872z" fill="#a9a9a9" stroke="none" stroke-width="0"/><path d="M74.80844,-89.01764h67.59159v383.10957h-67.59159z" fill="none" stroke="#000000" stroke-width="5"/></g><path d="M90.3225,73.39311v-66.08872h520.71158v66.08872z" fill="#a9a9a9" stroke="none" stroke-width="0"/><path d="M77.38584,339.8405v-66.08872h392.07293v66.08872z" fill="#a9a9a9" stroke="none" stroke-width="0"/><path d="M569.80728,73.58574v-66.29801h42.13772v66.29801z" fill="#49e320" stroke="#000000" stroke-width="0"/><path d="M306.88218,148.1561c0,25.06706 -7.29467,45.38793 -16.2931,45.38793c-8.99844,0 -16.2931,-20.32087 -16.2931,-45.38793c0,-25.06706 7.29467,-45.38793 16.2931,-45.38793c8.99844,0 16.2931,20.32087 16.2931,45.38793z" fill="#000000" stroke="none" stroke-width="0"/><path d="M225.41666,148.1561c0,25.06706 -7.29467,45.38793 -16.2931,45.38793c-8.99844,0 -16.2931,-20.32087 -16.2931,-45.38793c0,-25.06706 7.29467,-45.38793 16.2931,-45.38793c8.99844,0 16.2931,20.32087 16.2931,45.38793z" fill="#000000" stroke="none" stroke-width="0"/><path d="M334.81322,217.59576c0,19.28235 -37.51545,34.91379 -83.79311,34.91379c-46.27766,0 -83.7931,-15.63144 -83.7931,-34.91379c0,-19.28235 36.73959,6.2069 83.01724,6.2069c46.27766,0 84.56897,-25.48925 84.56897,-6.2069z" fill="#000000" stroke="none" stroke-width="0"/><text transform="translate(387.39132,-75.32557) scale(0.19309,0.19309)" font-size="40" xml:space="preserve" fill="#000000" fill-rule="nonzero" stroke="none" stroke-width="1" stroke-linecap="butt" stroke-linejoin="miter" stroke-miterlimit="10" stroke-dasharray="" stroke-dashoffset="0" font-family="&quot;Grand9K Pixel&quot;, Pixel" font-weight="normal" text-anchor="start" style="mix-blend-mode: normal"><tspan x="0" dy="0">Wrong Way</tspan></text><text transform="translate(96.82841,-75.32557) scale(0.19309,0.19309)" font-size="40" xml:space="preserve" fill="#000000" fill-rule="nonzero" stroke="none" stroke-width="1" stroke-linecap="butt" stroke-linejoin="miter" stroke-miterlimit="10" stroke-dasharray="" stroke-dashoffset="0" font-family="&quot;Grand9K Pixel&quot;, Pixel" font-weight="normal" text-anchor="start" style="mix-blend-mode: normal"><tspan x="0" dy="0">Nope</tspan></text><path d="M455.93041,201.96881v-62.69831h110.92471v62.69831z" fill="#a9a9a9" stroke="none" stroke-width="NaN"/><text transform="translate(571.00809,214.93145) scale(0.19309,0.19309)" font-size="40" xml:space="preserve" fill="#000000" fill-rule="nonzero" stroke="none" stroke-width="1" stroke-linecap="butt" stroke-linejoin="miter" stroke-miterlimit="10" stroke-dasharray="" stroke-dashoffset="0" font-family="Pixel" font-weight="normal" text-anchor="start" style="mix-blend-mode: normal"><tspan x="0" dy="0">You don't get it that  easy</tspan></text></g></g></svg>