<svg version="1.1" xmlns="http://www.w3.org/2000/svg" xmlns:xlink="http://www.w3.org/1999/xlink" width="81.16666" height="81.16668" viewBox="0,0,81.16666,81.16668"><g transform="translate(-349.41667,-139.41666)"><g stroke-miterlimit="10"><path d="M350.91667,180c0,-21.58513 17.4982,-39.08334 39.08333,-39.08334c21.58513,0 39.08333,17.4982 39.08333,39.08334c0,21.58513 -17.4982,39.08334 -39.08333,39.08334c-21.58513,0 -39.08333,-17.4982 -39.08333,-39.08334z" fill="#000000" stroke="#000000" stroke-width="3" stroke-linecap="butt" stroke-linejoin="miter"/><path d="M392.65617,172.22476v27.02596M392.65617,172.22476v-9.31834c0,-0.5831 0,-0.87467 0.09759,-1.12275c0.08606,-0.21908 0.22583,-0.41301 0.40637,-0.564c0.20473,-0.17101 0.48118,-0.26323 1.03436,-0.44763l12.37402,-4.12466c0.99976,-0.33325 1.49979,-0.49991 1.89773,-0.39999c0.34816,0.08746 0.64992,0.30488 0.84312,0.60765c0.22048,0.34591 0.22048,0.87285 0.22048,1.92669v9.31837c0,0.5831 0,0.87465 -0.09759,1.12275c-0.08606,0.21908 -0.22583,0.41298 -0.40637,0.564c-0.20473,0.17101 -0.48118,0.2632 -1.03436,0.4476l-12.37402,4.12468c-0.99976,0.33325 -1.49979,0.49988 -1.89773,0.39999c-0.34816,-0.08746 -0.64992,-0.30488 -0.84312,-0.60765c-0.22048,-0.34591 -0.22048,-0.87285 -0.22048,-1.92672zM392.65617,199.25072c0,3.88291 -4.40684,7.03069 -9.84297,7.03069c-5.43613,0 -9.84297,-3.14778 -9.84297,-7.03069c0,-3.88319 4.40684,-7.03069 9.84297,-7.03069c5.43613,0 9.84297,3.1475 9.84297,7.03069z" fill="none" stroke="#ffffff" stroke-width="5" stroke-linecap="round" stroke-linejoin="round"/></g></g></svg>