<svg version="1.1" xmlns="http://www.w3.org/2000/svg" xmlns:xlink="http://www.w3.org/1999/xlink" width="353.65427" height="350.59159" viewBox="0,0,353.65427,350.59159"><g transform="translate(-144.30591,-4.70426)"><g stroke-miterlimit="10"><path d="M149.49111,354.39313v-347.08871h344.10514v347.08872z" fill="#a9a9a9" stroke="none" stroke-width="0" stroke-linecap="butt"/><path d="M144.30592,330.67494l40,-223.95688c0,0 32.23736,-29.48197 64.60776,-25.10794c49.03774,6.62619 160.98707,50.99623 160.98707,50.99623l40.73476,65.0181l-38.02745,56.09361l14,53.95688z" fill-opacity="0.5098" fill="#ff7070" stroke="none" stroke-width="0" stroke-linecap="butt"/><path d="M236.55148,84.69555l2.09966,-74.64616" fill="none" stroke="#0091ff" stroke-width="5" stroke-linecap="round"/><path d="M271.57271,186.5146l52.56548,-38.48284l7.83333,42.64951z" fill="#49e320" stroke="#000000" stroke-width="0" stroke-linecap="butt"/><path d="M246.55148,336.69556l36.09966,-85.64616" fill="none" stroke="#0091ff" stroke-width="5" stroke-linecap="round"/><path d="M147.20424,352.79585v-345.59159h345.59159v345.59159z" fill="none" stroke="#000000" stroke-width="5" stroke-linecap="butt"/><path d="M148.12501,78.92127h250l28.80333,14.1946l-16.39043,47.36587l39.75445,60.62554l-37.76673,52.67465l11.92633,54.66237l-200.75997,-83.48435l101.37385,-80.50276l9.93861,61.6194" fill="none" stroke="#000000" stroke-width="5" stroke-linecap="round"/><path d="M493.02841,102.71502l-33.79129,26.83426l35.779,63.60712l-39.75445,57.64396l35.779,93.42296l-341.88827,-33.79128l94.41682,-226.60037l163.98711,54.66237" fill="none" stroke="#000000" stroke-width="5" stroke-linecap="round"/><path d="M475.63538,156.91348c-1.07827,-0.29407 -3.11675,-4.83429 -3.4193,-5.92434c-1.89161,-6.81516 -6.51393,-11.57769 -8.86417,-18.06204c-1.57643,-0.00305 -2.64957,-0.70571 -2.53893,-2.69716c0.04554,-0.81967 0.65683,-1.67907 1.25,-2.1875c1.39194,-1.19309 3.70452,-0.67344 4.93106,-1.76891c1.9603,-1.75081 3.62031,-4.66598 5.80038,-5.97403c0.28377,-0.17026 1.07985,-0.48533 1.96547,-0.72746c1.0073,-1.32933 3.04612,-2.19983 4.18816,-3.21491c2.3594,-2.09709 9.17126,-10.70666 12.48585,-8.40696c1.79264,1.24376 -0.15915,4.58839 0.0914,6.13233c0.66413,4.09255 -0.39214,7.84622 -0.03837,11.80052c0.11546,1.29061 0.93842,2.31446 0.81505,3.66771c-0.0943,1.03433 -1.54144,3.14063 -1.53185,3.72762c0.0044,0.26933 1.9466,2.10697 1.65249,2.7871c0.01005,0.09106 0.01521,0.18359 0.01521,0.27733c0,1.13298 -0.75367,2.08994 -1.78702,2.39686c0.19568,4.14584 -0.54621,8.35006 0.02108,12.32874c0.32398,2.27223 0.55551,4.54261 1.08325,6.77813c0.19574,0.82915 -0.72167,2.14856 0.0267,2.55567c0.95197,0.51788 2.2578,1.44698 2.16581,2.61629c-0.1736,2.20676 -1.68491,5.53108 -2.30076,7.46628c-0.26556,0.83448 -0.56583,4.26247 -0.4483,4.52476c0.3156,0.70429 2.31141,2.97395 1.91465,3.76748c0.00251,0.04595 0.00379,0.09222 0.00379,0.1388c0,1.38071 -1.11929,2.5 -2.5,2.5c-0.5584,0.35018 -1.17371,-0.06146 -1.72207,-0.68768c-0.17899,-0.17013 -0.33281,-0.36651 -0.45528,-0.58296c-0.4352,-0.61398 -0.79237,-1.27092 -0.9895,-1.60855c-1.3392,-2.29359 -1.98695,-4.9021 -3.31531,-7.26666c-1.02761,-1.8292 -3.59181,-3.25165 -4.13371,-5.41922c-0.2236,-0.89441 -1.65188,-5.33974 -2.57039,-8.74564c-0.50976,0.05331 -1.10415,-0.00309 -1.79538,-0.19161z" fill="#000000" stroke="none" stroke-width="0.5" stroke-linecap="butt"/><path d="M478.30624,306.03627l-0.08317,-0.15153l-0.13051,-0.11334l-0.95089,-1.35841l-0.06667,-0.17408l-0.12132,-0.14154l-0.18287,-0.36574l-0.35658,-0.30564l-0.00213,-0.03826l-0.52505,-0.78758l-0.08795,-0.24627l-0.15311,-0.212l-0.27168,-0.67921l-0.01016,-0.07449l-0.04036,-0.06342l-0.13584,-0.40752l-0.00427,-0.05553l-0.02783,-0.04824l-0.18784,-0.65745l-0.00337,-0.00193l-0.01742,-0.06966l-0.03115,-0.06231l-0.12461,-0.56075l-0.13932,-0.55728v-0.06966l-0.01558,-0.07009l0.01062,-0.01593l-0.13088,-0.52353v-0.06966l-0.01558,-0.07009l0.01558,-0.02336v-0.07248l-0.18081,-0.72323l-0.49352,-1.60394l-0.23359,-0.58397l-0.03125,-0.22916l-0.09901,-0.20902l-0.07018,-0.35091l-0.39364,-0.78728l-0.05973,-0.26876l-0.12956,-0.24293l-0.03081,-0.12326l-0.30316,-0.45474l-0.05313,-0.14877l-0.10281,-0.11994l-0.13584,-0.27168l-0.05973,-0.26876l-0.12956,-0.24293l-0.06928,-0.27713l-0.14895,-0.29791l-0.05973,-0.26876l-0.12956,-0.24293l-0.06928,-0.27713l-0.14895,-0.29791l-0.03903,-0.17566l-0.09661,-0.15181l-0.07966,-0.23897l-0.05638,-0.11277l-0.03903,-0.17566l-0.09661,-0.15181l-0.13584,-0.40752l-0.02717,-0.35319l-0.5162,-1.54859l-0.01959,-0.25468l-0.11645,-0.2329l-0.03903,-0.17566l-0.09661,-0.15181l-0.07966,-0.23897l-0.59975,-1.1995l-0.02301,-0.10356l-0.06211,-0.086l-0.15148,-0.3787l-0.21442,-0.21442l-0.37692,-0.62819l-0.20019,-0.30029l-0.22071,-0.29428l-0.08609,-0.00478l-0.32251,-0.37626l-0.37626,-0.32251l-0.00692,-0.12453l-0.13284,-0.15498l-0.12062,-0.24125l-0.08255,-0.13758l-0.18425,-0.1675l-0.27168,-0.40752l-0.03383,-0.09473l-0.07354,-0.04202l-0.13658,-0.54632l-0.1894,-0.53033l0.03788,-0.07576l-0.0244,-0.09758v-0.27168l0.26676,-1.06706l-0.00283,-0.05098l0.01869,-0.01246l0.02988,-0.1195l0.73014,-0.41722l0.07061,-0.14122l0.20076,-0.01385l0.04416,-0.02524l0.05742,-0.03828c-1.99178,-2.28513 -3.76141,-5.51925 -4.27603,-7.83502c-0.47081,-2.11863 0.14927,-4.66429 -1.0376,-6.70854c-1.25619,-2.16365 -3.84416,-6.18858 -3.72392,-9.03179c-2.95967,-4.11767 2.35617,-5.883 4.74567,-10.55604c5.13249,-10.03739 12.94843,-18.52822 19.20993,-27.88323c1.7106,-2.55573 3.95909,-5.75353 5.10815,-8.52762c0.27083,-0.65384 1.38846,-3.27125 2.27262,-3.21028c0.32923,-0.15961 0.69877,-0.24912 1.08921,-0.24912c1.33384,0 2.42371,1.04459 2.49616,2.36033c0.01917,0.09972 0.02559,0.20384 0.01732,0.31301c-0.07273,0.9603 -1.02948,2.64554 -1.63583,3.52567c-0.06795,0.09863 -1.31739,1.64331 -1.2558,1.69655c2.77492,2.39868 0.91469,4.63721 0.56885,7.69198c-0.14086,1.24415 0.55789,3.20472 0.83062,4.43203c0.53633,2.41347 -0.57681,8.30994 -0.55894,10.32783c0.02553,2.88369 -0.09427,5.76881 -0.27168,8.64716c-0.16003,2.59623 -0.62095,5.23082 -0.67271,7.82173c-0.01819,0.91055 1.15827,1.56409 1.21431,2.45783c0.30173,0.15311 0.55772,0.3766 0.74252,0.69999c1.45883,2.55296 -1.40778,5.25456 -1.44032,7.67569c-0.06987,5.19912 3.06571,16.09293 0.40598,21.54165c0.62216,2.52386 0.47475,6.12825 0.23314,7.55172c-0.43633,2.57067 -0.12299,5.31809 -0.27168,7.97479c-0.15909,2.84258 -0.13076,5.75558 -0.25319,8.62866c-0.01402,0.32912 0.10358,0.90494 0.16249,1.48079c0.16961,0.83636 -0.11906,1.96188 -0.18098,2.6753c-0.2722,3.13629 1.01875,7.26273 1.57804,10.24563c0.03412,0.16464 0.05205,0.3352 0.05205,0.50995c0,1.12402 -0.74179,2.07478 -1.76253,2.38945c0.08036,0.48776 0.15419,0.97669 0.21973,1.46717c0.42257,3.16225 0.05303,6.56529 1.52806,9.51535c0.18291,0.34741 0.28642,0.74312 0.28642,1.16302c0,0.03854 -0.00087,0.07687 -0.0026,0.11498c-0.07265,2.23767 -1.4058,2.72879 -2.69463,2.37735c-0.94755,-0.07395 -1.74678,-0.67618 -2.10341,-1.51241c-0.08354,-0.13179 -0.1534,-0.26744 -0.20711,-0.40526c-0.95402,-2.44811 -1.66136,-5.75934 -2.23998,-9.27137c-0.76367,-0.16704 -1.39676,-0.68315 -1.72363,-1.37267c-1.79617,-2.31521 -4.86584,-14.12396 -4.58662,-17.37051c0.01968,-0.22878 0.07159,-0.44421 0.15024,-0.64453zM479.82073,238.69257c-0.06642,0.17981 -0.01271,0.17988 0.11065,0.08041c-0.01058,-0.06528 -0.02115,-0.13057 -0.03174,-0.19587c-0.04572,0.06192 -0.07403,0.10225 -0.07891,0.11546z" fill="#000000" stroke="none" stroke-width="0.5" stroke-linecap="butt"/><path d="M149.91797,349.48645l1.98319,-35.01336l337.20391,31.33434l0.99159,5.06726z" fill="#000000" stroke="#000000" stroke-width="5" stroke-linecap="butt"/><path d="M148.94443,79.73271l94.5,0.75l-94.75,226z" fill="#000000" stroke="#000000" stroke-width="0" stroke-linecap="butt"/><path d="M411.22957,138.0878l-172.5,-57.75l160.25,1l27.39527,12.41107z" fill="#000000" stroke="none" stroke-width="0" stroke-linecap="butt"/></g></g></svg>