<svg version="1.1" xmlns="http://www.w3.org/2000/svg" xmlns:xlink="http://www.w3.org/1999/xlink" width="65.66666" height="65.66668" viewBox="0,0,65.66666,65.66668"><g transform="translate(-357.16668,-147.16667)"><g stroke-miterlimit="10"><path d="M407.51232,171.01551c0.02684,0.38827 0.02684,0.77654 0.02684,1.16838c0,11.93968 -9.0894,25.70977 -25.70977,25.70977v-0.00716c-4.90971,0.00716 -9.71743,-1.3992 -13.8506,-4.05087c0.71391,0.08588 1.4314,0.12883 2.15068,0.13062c4.06876,0.00358 8.02122,-1.36162 11.22219,-3.87552c-3.86657,-0.07336 -7.25721,-2.59442 -8.44169,-6.27491c1.35446,0.26123 2.75008,0.20755 4.0795,-0.15566c-4.21548,-0.85168 -7.24826,-4.55544 -7.24826,-8.8568v-0.11451c1.25606,0.6996 2.66241,1.08787 4.10097,1.13081c-3.97035,-2.65346 -5.1942,-7.93533 -2.7966,-12.06493c4.58764,5.64509 11.35638,9.07688 18.62254,9.44009c-0.72823,-3.13835 0.2666,-6.42699 2.6141,-8.63314c3.63934,-3.42105 9.36316,-3.2457 12.78421,0.39185c2.02364,-0.399 3.96319,-1.14154 5.73813,-2.19362c-0.67455,2.09164 -2.08627,3.86836 -3.97214,4.99738c1.79104,-0.21113 3.54093,-0.69065 5.18883,-1.42246c-1.21311,1.81788 -2.74113,3.40137 -4.50892,4.68068z" fill="#1d9bf0" stroke="none" stroke-width="1"/><path d="M376.98382,165.82571c5.26865,3.95536 10.93568,11.97521 13.01632,16.27912c2.08081,-4.30359 7.74752,-12.32383 13.01632,-16.27912c3.80158,-2.85403 9.96112,-5.06232 9.96112,1.96457c0,1.40337 -0.80461,11.78901 -1.27652,13.47508c-1.64035,5.86194 -7.61773,7.35706 -12.93471,6.45214c9.29398,1.5818 11.65828,6.82129 6.55229,12.06078c-9.69727,9.95082 -13.9378,-2.49669 -15.02487,-5.68621c-0.19919,-0.58471 -0.2924,-0.85824 -0.29377,-0.62565c-0.00138,-0.2326 -0.09458,0.04094 -0.29377,0.62565c-1.08659,3.18951 -5.32704,15.63734 -15.02487,5.68621c-5.10606,-5.23949 -2.74184,-10.4793 6.5523,-12.06078c-5.31714,0.90491 -11.2946,-0.59021 -12.93471,-6.45214c-0.47192,-1.68623 -1.27652,-12.07187 -1.27652,-13.47508c0,-7.02689 6.1597,-4.81861 9.96112,-1.96457z" fill="#ffffff" stroke="none" stroke-width="1"/><path d="M358.66668,180.00002c0,-17.30492 14.02841,-31.33334 31.33333,-31.33334c17.30492,0 31.33333,14.02841 31.33333,31.33334c0,17.30492 -14.02841,31.33334 -31.33333,31.33334c-17.30492,0 -31.33333,-14.02841 -31.33333,-31.33334z" fill="#000000" stroke="#000000" stroke-width="3"/><path d="M402.53407,160.48976h6.6234l-14.54269,16.55851l16.99047,22.46198h-13.3332l-10.43906,-13.64997l-11.95092,13.64997h-6.6234l15.40661,-17.71041l-16.27053,-21.31008h13.66437l9.43115,12.46928zM400.21588,195.62259h3.67167l-23.75786,-31.38917h-3.94524z" fill="#ffffff" stroke="#000000" stroke-width="0"/></g></g></svg>