<svg version="1.1" xmlns="http://www.w3.org/2000/svg" xmlns:xlink="http://www.w3.org/1999/xlink" width="350.99876" height="375.49823" viewBox="0,0,350.99876,375.49823"><g transform="translate(-214.58283,19.37184)"><g data-paper-data="{&quot;isPaintingLayer&quot;:true}" fill-rule="nonzero" stroke-linejoin="miter" stroke-miterlimit="10" stroke-dasharray="" stroke-dashoffset="0" style="mix-blend-mode: normal"><path d="M219.49111,354.3931v-347.08871h344.10514v347.08871z" fill="#a9a9a9" stroke="none" stroke-width="0" stroke-linecap="butt"/><path d="M305.4131,87.13236l108.37211,-8.75643l87.56381,93.03268l-199.00525,149.68297h-69.16745l-0.98801,-172.29889l66.56778,63.85399l55.20593,-29.76447z" fill-opacity="0.5098" fill="#ff7070" stroke="none" stroke-width="0" stroke-linecap="butt"/><path d="M290.96221,78.59907v-69.16745h164.55525v69.16745z" fill-opacity="0.5098" fill="#ff7070" stroke="none" stroke-width="0" stroke-linecap="butt"/><path d="M528.92264,350.32678v-94.35731h31.50509v94.35731z" fill="#49e320" stroke="#000000" stroke-width="0" stroke-linecap="butt"/><path d="M217.20424,352.79585v-345.59159h345.59159v345.59159z" fill="none" stroke="#000000" stroke-width="5" stroke-linecap="butt"/><path d="M218.125,78.92127h250" fill="none" stroke="#000000" stroke-width="5" stroke-linecap="round"/><path d="M512.66162,7.98662l49.99118,50.18465" fill="none" stroke="#000000" stroke-width="5" stroke-linecap="round"/><path d="M559.64655,53.98857l-41.98194,-45.46431l41.78848,1.16079v29.60017z" fill="#000000" stroke="#000000" stroke-width="5" stroke-linecap="butt"/><path d="M559.78045,165.63028h-269.76404l66.32887,-1.35032l34.42991,-17.44815l31.22211,16.63763l66.19236,1.00389l74.89193,-71.46553" fill="none" stroke="#000000" stroke-width="5" stroke-linecap="round"/><path d="M453.71188,80.61582l-64.30115,-0.54034l-33.23127,33.23126l-30.47551,-30.4755l-29.82709,29.82709h-76.03452" fill="none" stroke="#000000" stroke-width="5" stroke-linecap="round"/><path d="M356.10024,110.41011l-25.1269,-28.5533l57.39213,-1.71319z" fill="#000000" stroke="#000000" stroke-width="5" stroke-linecap="butt"/><path d="M490.38653,165.66546l70.44903,-70.44902v70.44902z" fill="#000000" stroke="#000000" stroke-width="5" stroke-linecap="butt"/><path d="M219.49564,109.85731v-28.08166l105.7396,-0.34668l-30.85517,28.42835z" fill="#000000" stroke="#000000" stroke-width="5" stroke-linecap="butt"/><path d="M217.76222,351.64934v-243.52546h25.30817v243.52546z" fill="#000000" stroke="#000000" stroke-width="5" stroke-linecap="butt"/><path d="M269.24527,103.0969l-31.0285,31.02851" fill="none" stroke="#000000" stroke-width="5" stroke-linecap="round"/><path d="M264.30352,107.44126c2.76273,3.55209 -0.78936,6.31482 -0.78936,6.31482l-2.77754,2.1315c-4.03205,4.76793 -9.45284,12.11827 -16.62618,10.60378c-2.40099,-0.50692 -5.79397,-0.1112 -7.01228,-2.24133c-3.96664,-6.93536 5.92597,-8.26751 5.66721,-12.87076c0,0 0.55816,-4.46525 5.02341,-3.90709c4.46525,0.55815 3.90709,5.02341 3.90709,5.02341c-0.01739,0.09476 -0.0329,0.19016 -0.0469,0.28609c1.00368,-1.17391 1.96587,-2.35675 2.87688,-3.40765l3.46284,-2.72212c0,0 3.55209,-2.76274 6.31482,0.78935z" fill="#000000" stroke="none" stroke-width="0.5" stroke-linecap="butt"/><path d="M292.49254,253.44253l-11.33126,-49.03884l11.33126,-34.04895h16.28096v83.08779z" fill="#000000" stroke="#000000" stroke-width="5" stroke-linecap="butt"/><path d="M304.46043,218.6771c0,-21.6065 17.51553,-39.12203 39.12203,-39.12203c21.60651,0 39.12204,17.51553 39.12204,39.12203c0,21.60651 -17.51553,39.12203 -39.12204,39.12203c-21.6065,0 -39.12203,-17.51553 -39.12203,-39.12203z" fill="#000000" stroke="#000000" stroke-width="5" stroke-linecap="butt"/><path d="M380.62978,200.1808c0,-21.6065 10.78152,-37.25147 32.38803,-37.25147c21.6065,0 45.85604,15.64497 45.85604,37.25147c0,21.60651 -17.51553,39.12204 -39.12203,39.12204c-21.6065,0 -39.12204,-17.51553 -39.12204,-39.12204z" fill="#000000" stroke="#000000" stroke-width="5" stroke-linecap="butt"/><path d="M457.11203,220.15343c0,-21.6065 17.51553,-39.12204 39.12204,-39.12204c21.60651,0 39.12203,17.51553 39.12203,39.12204c0,21.60651 -17.51553,39.12203 -39.12203,39.12203c-21.60651,0 -39.12204,-17.51553 -39.12204,-39.12203z" fill="#000000" stroke="#000000" stroke-width="5" stroke-linecap="butt"/><path d="M494.79729,257.88081h66.01532" fill="none" stroke="#000000" stroke-width="5" stroke-linecap="round"/><path d="M305.71966,252.80271l33.67583,4.00903" fill="#000000" stroke="#000000" stroke-width="5" stroke-linecap="round"/><path d="M317.35379,254.15495c-1.47272,0.98181 -7.55702,-1.05141 -7.66052,-2.91428c-0.45725,-0.70437 -0.72282,-1.54466 -0.72282,-2.44698c0,-0.42772 0.05967,-0.84151 0.17115,-1.23349c-0.06355,-0.20227 -0.07808,-0.39697 -0.0286,-0.57842c-0.09306,-0.36049 -0.14256,-0.73849 -0.14256,-1.12805c0,-2.48528 2.01472,-4.5 4.5,-4.5c1.19943,-0.92864 3.74104,2.04446 4.88127,2.34726c4.19407,1.1138 12.45144,0.53675 8.12009,8.11662c-1.02339,1.79094 -4.56828,1.89709 -7.91784,1.28338c-0.32096,0.37839 -0.7187,0.73298 -1.20017,1.05396z" fill="#000000" stroke="none" stroke-width="0.5" stroke-linecap="butt"/><path d="M498.21238,253.88894v-86.06046h63.87718v86.06046z" fill="#000000" stroke="#000000" stroke-width="5" stroke-linecap="butt"/><path d="M442.70962,195.89167v-29.6668h57.72999v29.6668z" fill="#000000" stroke="#000000" stroke-width="5" stroke-linecap="butt"/><path d="M307.79841,202.84066v-37.95213h89.00042v37.95213z" fill="#000000" stroke="#000000" stroke-width="5" stroke-linecap="butt"/><path d="M356.50068,254.69075l61.47176,-21.11421" fill="none" stroke="#000000" stroke-width="5" stroke-linecap="round"/><path d="M428.87105,239.18917l62.00629,19.77787" fill="none" stroke="#000000" stroke-width="5" stroke-linecap="round"/><path d="M447.1949,226.79326c-4.95213,-4.77527 -0.33556,-10.75563 5.57491,-8.94374c2.63326,0.80724 4.13028,6.59043 5.81853,8.31476c5.17283,5.2834 11.05633,9.10643 15.13954,15.41153c1.33432,2.06041 2.12461,6.95489 0.34316,8.65183c-8.71447,8.3011 -15.52481,-2.7953 -21.91465,-4.68418c-3.40355,-1.00611 -12.66604,-3.01637 -15.37914,-5.11917c-0.46589,-0.3611 -2.24971,-3.93215 -2.25,-3.9375c-0.04717,-0.84906 1.89294,-1.64077 1.26572,-2.215c-0.97181,-0.8897 -1.54087,-2.34872 -1.48064,-3.66491c0.33042,-7.22078 8.19691,-4.04061 13.00511,-3.55979z" fill="#000000" stroke="none" stroke-width="0.5" stroke-linecap="butt"/><path d="M406.29599,238.11498c-0.61399,0.67498 -1.2158,1.02273 -1.81236,1.19561c-0.48807,0.18136 -1.01612,0.28046 -1.56733,0.28046c-0.4256,0 -0.83741,-0.05909 -1.22765,-0.1695c-0.73219,-0.00093 -1.47284,0.09456 -2.23475,0.56738c-8.44156,5.23855 -17.75813,6.07218 -26.56159,10.02559c-2.83868,1.27478 -7.70116,3.96182 -10.30831,1.35466c-2.09879,-2.09879 -1.50171,-4.7807 0.12928,-6.52685c-0.93869,-2.90591 2.22973,-5.1329 4.56963,-6.53684c0.65366,-0.3922 2.52281,-0.72669 2.54706,-1.14093c0.26497,-4.52634 1.85494,-4.38692 4.7547,-6.56174l-1.55887,-2.72802c1.72406,-3.0171 1.24858,-4.38484 4.5,-4.5c4.54071,-0.16083 9.0897,-0.15287 13.6307,0c0.1108,0.00373 0.22508,0.00799 0.34261,0.01284c4.8494,0.20033 15.21928,1.40941 13.7197,7.83627c1.31604,0.78527 2.1975,2.22326 2.1975,3.86713c0,0.34616 -0.03909,0.68319 -0.11308,1.00691c-0.12198,0.70534 -0.44295,1.39667 -1.00723,2.01701z" fill="#000000" stroke="none" stroke-width="0.5" stroke-linecap="butt"/><path d="M385.98694,292.8664l-61.39279,19.78225l-107.51132,-12.77724" fill="none" stroke="#000000" stroke-width="5" stroke-linecap="round"/><path d="M244.98809,353.62639l-1.89761,-48.95842c0,0 52.66793,10.24711 78.56119,10.24711c10.95467,0 23.58795,-4.90445 35.02277,-8.84398c16.31951,-5.62241 29.8756,-10.8912 29.8756,-10.8912l15.93995,58.44649z" fill="#000000" stroke="#000000" stroke-width="5" stroke-linecap="butt"/><path d="M402.73134,152.13765c0.32584,0.2826 1.95412,1.11284 2.72063,1.50535c0.12198,0.0563 0.24101,0.1179 0.3568,0.18451c1.35026,0.77672 2.25944,2.2339 2.25944,3.90343c0,0.27066 -0.0239,0.53575 -0.06969,0.79325c1.34579,0.55351 2.32436,0.94126 2.52022,1.03866c0.11164,0.05552 0.23186,0.11076 0.35578,0.16739c1.43305,0.75269 2.41047,2.25544 2.41047,3.98649c0,2.13854 -1.49176,3.92867 -3.49146,4.38655c-0.17255,0.06435 -0.35582,0.10736 -0.55163,0.1254c-4.62945,0.42644 -8.48518,-5.39498 -13.14446,-3.37241c-5.86278,2.54501 -14.52618,5.13878 -20.98248,5.23102c-5.02018,0.07172 -9.87334,0.97501 -11.04695,-4.5c-0.80015,-3.73276 2.94606,-3.19474 3.8842,-4.91859c2.13146,-3.91658 7.28464,-3.81963 10.60009,-6.30621c2.29606,-1.72205 5.97085,-1.98206 8.11919,-3.8869c1.5728,-1.39453 0.49861,-3.50753 2.76291,-4.74846c0.28634,-0.15692 4.20379,-0.43684 4.52804,-0.25156c0.62842,0.3591 1.06236,0.78945 1.37065,1.26618c2.76728,0.37247 5.69996,3.92297 7.39826,5.3959z" fill="#000000" stroke="none" stroke-width="0.5" stroke-linecap="butt"/><text transform="translate(226.4532,-9.55912) scale(0.19441,0.19441)" font-size="40" xml:space="preserve" fill="#ffffff" fill-rule="nonzero" stroke="none" stroke-width="1" stroke-linecap="butt" stroke-linejoin="miter" stroke-miterlimit="10" stroke-dasharray="" stroke-dashoffset="0" font-family="&quot;Grand9K Pixel&quot;, Pixel" font-weight="normal" text-anchor="start" style="mix-blend-mode: normal"><tspan x="0" dy="0">Pink inverts ur controls</tspan></text></g></g></svg>