<svg version="1.1" xmlns="http://www.w3.org/2000/svg" xmlns:xlink="http://www.w3.org/1999/xlink" width="491.61482" height="226.00068" viewBox="0,0,491.61482,226.00068"><g transform="translate(-144.70424,-4.70426)"><g stroke-miterlimit="10"><path d="M225.8201,115.28623c0,-55.4869 44.98102,-100.46791 100.46791,-100.46791c55.4869,0 100.46791,44.98102 100.46791,100.46791c0,55.4869 -44.98102,100.46791 -100.46791,100.46791c-55.4869,0 -100.46791,-44.98102 -100.46791,-100.46791z" fill="none" stroke="#000000" stroke-width="5" stroke-linecap="butt"/><path d="M365.17108,226.80221v-66.08872h267.54577v66.08872z" fill="#a9a9a9" stroke="none" stroke-width="0" stroke-linecap="butt"/><path d="M149.49111,73.39312v-66.08872h392.07293v66.08872z" fill="#a9a9a9" stroke="none" stroke-width="0" stroke-linecap="butt"/><path d="M499.80728,73.58573v-65.28347h42.13772v65.28347z" fill="#49e320" stroke="#000000" stroke-width="0" stroke-linecap="butt"/><path d="M147.20424,74.79585v-67.59159h395.97502v67.59159z" fill="none" stroke="#000000" stroke-width="5" stroke-linecap="butt"/><path d="M591.22671,230.16501v-70.57759h42.13772v70.57759z" fill="#49e320" stroke="#000000" stroke-width="0" stroke-linecap="butt"/><path d="M421.5108,10.60324v61.05047" fill="none" stroke="#000000" stroke-width="7.5" stroke-linecap="round"/><path d="M440.13598,162.03865v65.43658" fill="none" stroke="#0091ff" stroke-width="5" stroke-linecap="round"/><path d="M363.61055,228.20494v-67.59159h270.20851v67.59159z" fill="none" stroke="#000000" stroke-width="5" stroke-linecap="butt"/><path d="M227.02331,115.28623c0,-54.82238 44.44232,-99.2647 99.2647,-99.2647c54.82238,0 99.2647,44.44232 99.2647,99.2647c0,54.82238 -44.44232,99.2647 -99.2647,99.2647c-54.82238,0 -99.2647,-44.44232 -99.2647,-99.2647z" fill="#a9a9a9" stroke="#000000" stroke-width="0" stroke-linecap="butt"/><path d="M287.18372,115.28623c0,-21.5967 17.50758,-39.10428 39.10428,-39.10428c21.5967,0 39.10428,17.50758 39.10428,39.10428c0,21.5967 -17.50758,39.10428 -39.10428,39.10428c-21.5967,0 -39.10428,-17.50758 -39.10428,-39.10428z" fill="#000000" stroke="#000000" stroke-width="0" stroke-linecap="butt"/></g></g></svg>