<svg version="1.1" xmlns="http://www.w3.org/2000/svg" xmlns:xlink="http://www.w3.org/1999/xlink" width="373.51365" height="350.59159" viewBox="0,0,373.51365,350.59159"><g transform="translate(-214.70424,-4.70425)"><g data-paper-data="{&quot;isPaintingLayer&quot;:true}" fill-rule="nonzero" stroke-linejoin="miter" stroke-miterlimit="10" stroke-dasharray="" stroke-dashoffset="0" style="mix-blend-mode: normal"><path d="M219.49111,354.3931v-347.08871h344.10514v347.08872z" fill="#a9a9a9" stroke="none" stroke-width="0" stroke-linecap="butt"/><path d="M529.3893,351.11104l32.12593,-37.7121l-0.62084,37.7121z" fill="#49e320" stroke="#000000" stroke-width="0" stroke-linecap="butt"/><path d="M217.20424,352.79584v-345.59159h345.59159v345.59159z" fill="none" stroke="#000000" stroke-width="5" stroke-linecap="butt"/><path d="M468.12501,78.92126h-250" fill="none" stroke="#000000" stroke-width="5" stroke-linecap="round"/><path d="M459.88085,178.22692c0,-35.4393 28.72923,-64.16852 64.16852,-64.16852c35.4393,0 64.16852,28.72923 64.16852,64.16852c0,35.4393 -28.72923,64.16852 -64.16852,64.16852c-35.4393,0 -64.16852,-28.72923 -64.16852,-64.16852z" fill="#000000" stroke="none" stroke-width="0" stroke-linecap="butt"/><path d="M293.79762,269.23717c0,-42.15655 34.17464,-76.33118 76.33118,-76.33118c42.15655,0 76.33118,34.17464 76.33118,76.33118c0,42.15655 -34.17464,76.33118 -76.33118,76.33118c-42.15655,0 -76.33118,-34.17464 -76.33118,-76.33118z" fill="#000000" stroke="none" stroke-width="0" stroke-linecap="butt"/><path d="M219.14404,353.1176v-272.61137h169.43845v272.61137z" fill="#000000" stroke="#000000" stroke-width="0.5" stroke-linecap="butt"/><path d="M562.21497,315.37141l-85.55803,-99.8177" fill="none" stroke="#000000" stroke-width="3.5" stroke-linecap="round"/><path d="M531.17921,353.1176l-96.42216,-82.50167" fill="none" stroke="#000000" stroke-width="3.5" stroke-linecap="round"/><path d="M511.35857,254.10526l-15.10707,-18.21127l65.18806,-6.41533l0.41389,82.98543z" fill="#000000" stroke="none" stroke-width="0" stroke-linecap="butt"/><path d="M385.82861,350.44299v-25.95296l56.32764,-47.87597l85.82882,75.06715z" fill="#000000" stroke="none" stroke-width="0" stroke-linecap="butt"/></g></g></svg>