<svg version="1.1" xmlns="http://www.w3.org/2000/svg" xmlns:xlink="http://www.w3.org/1999/xlink" width="351.5086" height="239.48048" viewBox="0,0,351.5086,239.48048"><g transform="translate(-144.70424,-4.70427)"><g stroke-miterlimit="10"><path d="M149.49111,241.11751v-233.8131h344.10514v233.81311z" fill="#a9a9a9" stroke="none" stroke-width="0" stroke-linecap="butt"/><path d="M434.90605,240.68124v-55.64951h56.23215v55.64951z" fill="#49e320" stroke="#000000" stroke-width="0" stroke-linecap="butt"/><path d="M487.36993,128.91709v-94.92187" fill="none" stroke="#be00ff" stroke-width="8" stroke-linecap="round"/><path d="M247.32256,76.12561v-65.27123" fill="none" stroke="#0091ff" stroke-width="5" stroke-linecap="round"/><path d="M147.20424,241.68475v-234.48048h345.59159v234.48048z" fill="none" stroke="#000000" stroke-width="5" stroke-linecap="butt"/><path d="M148.12501,78.92127h307.51044l-41.59719,17.99768h-264.65075" fill="none" stroke="#000000" stroke-width="5" stroke-linecap="round"/><path d="M490.54695,187.92958h-242.09812l-60.96258,-22.30999h217.65844l88.56815,-30.99885" fill="none" stroke="#000000" stroke-width="5" stroke-linecap="round"/><path d="M152.85869,213.62843v-94.92187" fill="none" stroke="#be00ff" stroke-width="8" stroke-linecap="round"/><path d="M149.91836,95.22244v-11.84795h267.3194l26.67604,-1.57271l-31.22409,14.21163z" fill="#000000" stroke="#000000" stroke-width="5" stroke-linecap="butt"/><path d="M248.33319,187.01675l-49.89728,-19.90661l207.24963,-2.58034l84.8282,-28.5993l0.51793,50.45774z" fill="#000000" stroke="none" stroke-width="0" stroke-linecap="butt"/></g></g></svg>