<svg version="1.1" xmlns="http://www.w3.org/2000/svg" xmlns:xlink="http://www.w3.org/1999/xlink" width="656.50805" height="376.83334" viewBox="0,0,656.50805,376.83334"><g transform="translate(-58.08277,19.37185)"><g data-paper-data="{&quot;isPaintingLayer&quot;:true}" fill-rule="nonzero" stroke-linejoin="miter" stroke-miterlimit="10" stroke-dasharray="" stroke-dashoffset="0" style="mix-blend-mode: normal"><path d="M73.62894,353.54435v-347.08871h638.69143v347.08872z" fill="#a9a9a9" stroke="none" stroke-width="0" stroke-linecap="butt"/><path d="M225.38536,255.61629l28.86284,58.54289" fill="none" stroke="#0091ff" stroke-width="7.5" stroke-linecap="round"/><path d="M524.41775,86.14224v-3.94397h74.14356v3.94397z" fill="#00ffff" stroke="#00feff" stroke-width="7.5" stroke-linecap="butt"/><path d="M660.4317,346.96053v-7.56762h47.67602v7.56762z" fill="#ffad00" stroke="#ffad00" stroke-width="7.5" stroke-linecap="butt"/><path d="M151.56002,76.1256v-65.27123" fill="none" stroke="#0091ff" stroke-width="7.5" stroke-linecap="round"/><path d="M134.25261,311.45393l40.86319,-15.98174l20.55962,35.6723l-42.6606,19.78704z" fill="#49e320" stroke="#000000" stroke-width="0" stroke-linecap="butt"/><path d="M72.28822,78.92126h152.0188l79.00503,33.98058l60.88905,-29.35065l80.70335,28.86432l77.08049,-32.74216h80.23207l87.31241,100.95498l-71.62347,-8.72271l39.56346,180.76399" fill="none" stroke="#000000" stroke-width="5" stroke-linecap="round"/><text transform="translate(58.17998,-9.55912) scale(0.19441,0.19441)" font-size="40" xml:space="preserve" fill="#ffffff" fill-rule="nonzero" stroke="none" stroke-width="1" stroke-linecap="butt" stroke-linejoin="miter" stroke-miterlimit="10" stroke-dasharray="" stroke-dashoffset="0" font-family="&quot;Grand9K Pixel&quot;, Pixel" font-weight="normal" text-anchor="start" style="mix-blend-mode: normal"><tspan x="0" dy="0">Thank you for playing my game</tspan></text><text transform="translate(62.9345,-0.05007) scale(0.19441,0.19441)" font-size="40" xml:space="preserve" fill="#ffffff" fill-rule="nonzero" stroke="none" stroke-width="1" stroke-linecap="butt" stroke-linejoin="miter" stroke-miterlimit="10" stroke-dasharray="" stroke-dashoffset="0" font-family="&quot;Grand9K Pixel&quot;, Pixel" font-weight="normal" text-anchor="start" style="mix-blend-mode: normal"><tspan x="0" dy="0">And good luck</tspan></text><path d="M252.54383,7.19683l50.47796,37.00586l65.48431,-36.1528l65.36156,44.79905l75.76894,-45.01125l202.06862,49.43644" fill="none" stroke="#000000" stroke-width="5" stroke-linecap="round"/><path d="M709.25961,161.19501v42.8166" fill="none" stroke="#be00ff" stroke-width="5" stroke-linecap="round"/><path d="M71.64161,352.79584v-345.59159h640.44921v345.59159z" fill="none" stroke="#000000" stroke-width="5" stroke-linecap="butt"/><path d="M621.61099,189.59614l-129.68918,81.45767" fill="none" stroke="#000000" stroke-width="5" stroke-linecap="round"/><path d="M379.38162,296.34249l62.70096,-75.5627l79.31405,29.47481" fill="none" stroke="#000000" stroke-width="5" stroke-linecap="round"/><path d="M451.19299,109.21029l84.13719,78.24223l-66.98821,9.74742l-112.5402,-108.78886" fill="none" stroke="#000000" stroke-width="5" stroke-linecap="round"/><path d="M298.24763,141.43075c0,-19.89935 -5.59785,-19.52955 11.09519,-27.814c6.77604,-3.36282 37.95056,-22.06666 46.02811,-22.06666c27.9769,0 44.19003,21.90376 44.19003,49.88066c0,27.9769 -22.67976,50.65666 -50.65666,50.65666c-27.9769,0 -50.65666,-22.67976 -50.65666,-50.65666z" fill="#000000" stroke="#000000" stroke-width="5" stroke-linecap="butt"/><path d="M330.45461,268.77028c0,-27.9769 22.67976,-50.65666 50.65666,-50.65666c27.9769,0 50.65667,22.67976 50.65667,50.65666c0,27.9769 -22.67977,50.65666 -50.65667,50.65666c-27.9769,0 -50.65666,-22.67976 -50.65666,-50.65666z" fill="#000000" stroke="#000000" stroke-width="5" stroke-linecap="butt"/><path d="M218.79907,193.15034c0,-27.9769 22.67976,-50.65666 50.65666,-50.65666c27.9769,0 50.65667,22.67976 50.65667,50.65666c0,27.9769 -22.67977,50.65666 -50.65666,50.65666c-27.9769,0 -50.65666,-22.67976 -50.65666,-50.65666z" fill="#000000" stroke="#000000" stroke-width="5" stroke-linecap="butt"/><path d="M265.19078,311.49484c0,-27.9769 22.67976,-50.65666 50.65666,-50.65666c27.9769,0 50.65667,22.67976 50.65667,50.65666c0,27.9769 -2.45798,38.26266 -30.43488,38.26266c-27.9769,0 -70.87845,-10.28576 -70.87845,-38.26266z" fill="#000000" stroke="#000000" stroke-width="5" stroke-linecap="butt"/><path d="M153.75216,233.1691c0,-27.9769 22.67976,-50.65666 50.65666,-50.65666c27.9769,0 50.65667,22.67976 50.65667,50.65666c0,27.9769 -22.67977,50.65666 -50.65666,50.65666c-27.9769,0 -50.65666,-22.67976 -50.65666,-50.65666z" fill="#000000" stroke="#000000" stroke-width="5" stroke-linecap="butt"/><path d="M213.16117,353.55371l6.98722,-32.64957l42.36481,-21.92099l51.30898,54.57055l-48.69972,1.40682z" fill="#000000" stroke="#000000" stroke-width="5" stroke-linecap="butt"/><path d="M369.94304,220.29384l-127.53751,87.81995l-89.5695,44.54649l-19.41748,-41.9241l94.42386,-35.27906l186.23124,-133.27449" fill="none" stroke="#000000" stroke-width="5" stroke-linecap="round"/><path d="M254.24744,249.46992l-1.08812,-1.67788c0.24669,-1.303 -0.09403,-2.87801 0.74008,-3.90898c2.06712,-2.55497 11.51109,-4.52149 12.59253,0.61001c0.36101,1.71302 -2.13872,2.78369 -3.36996,4.02821c-3.35289,3.38906 -5.63764,5.7211 -10.68603,5.83607c0,0 -2.5,0 -2.5,-2.5c0,-2.5 2.5,-2.5 2.5,-2.5c0.69659,0.0249 1.2758,0.13215 1.8115,0.11256z" fill="#000000" stroke="none" stroke-width="0.5" stroke-linecap="butt"/><path d="M264.28989,295.24433c0,0 2.04809,-1.43366 3.48174,0.61442c1.43365,2.04808 -0.61443,3.48174 -0.61443,3.48174c-1.34152,0.91678 -2.51259,2.08303 -3.57321,3.31886l0.0676,0.169l-0.31903,0.12761c-0.00307,0.00367 -0.00615,0.00734 -0.00922,0.01101l-0.01643,-0.00075l-0.6135,0.24539l0.02678,0.07366l-2.30304,0.83747c-0.28168,0.10996 -0.58819,0.17031 -0.90879,0.17031c-1.38071,0 -2.5,-1.11929 -2.5,-2.5c0,-1.0731 0.67611,-1.98829 1.62559,-2.34282l1.95806,-0.78323c1.04166,-1.31703 2.33122,-2.44852 3.69787,-3.42268z" fill="#000000" stroke="none" stroke-width="0.5" stroke-linecap="butt"/><path d="M317.81943,258.27323c0,-2.5 2.5,-2.5 2.5,-2.5l0.96999,0.05084l0.25676,-0.85586l0.06885,0.02066c0.03755,-0.17216 0.08311,-0.34293 0.13796,-0.51211c0.80755,-2.49103 5.23436,-4.98904 7.72038,-3.97675c0.08519,0.03468 0.16842,0.07066 0.24973,0.10789c0.19531,-0.22914 0.40267,-0.46914 0.62642,-0.72086c0,0 1.66091,-1.86853 3.52943,-0.20762c1.86852,1.66091 0.20761,3.52943 0.20761,3.52943c-0.52873,0.59481 -1.00461,1.14076 -1.45896,1.64513c0.10739,1.80023 -0.58484,3.72604 -1.6626,5.09973c-2.50613,3.19426 -7.06555,1.60284 -10.07061,0.7141l-0.57495,0.10543c0,0 -2.5,0 -2.5,-2.5z" fill="#000000" stroke="none" stroke-width="0.5" stroke-linecap="butt"/><path d="M331.35539,185.32962c0,0.61198 -0.14981,1.07415 -0.37608,1.42318c0.06279,0.47001 0.10451,0.95231 0.16558,1.42331c1.76297,-0.38781 3.46269,-0.56678 4.58476,-0.13973c1.72645,0.65707 4.20662,1.51317 4.41569,3.34856c0.06391,0.56101 -4.38825,4.4176 -5.50505,5.39674c-3.06879,2.69053 -5.15799,7.11916 -8.72601,9.1077c-2.75676,1.53641 -4.27171,1.03655 -7.11451,0.81255c0,0 -2.48973,-0.22634 -2.2634,-2.71608c0.22634,-2.48973 2.71607,-2.2634 2.71607,-2.2634c0.60795,0.06537 1.17325,0.0679 1.70248,0.01587c-2.62293,-0.34533 -5.02923,-1.58094 -5.66281,-4.2273c-0.6945,-2.90082 1.71955,-5.64185 4.07903,-7.17733c0.00252,-0.38306 0.01202,-0.75971 0.01287,-1.11599c0.01158,-4.88137 4.57438,-8.86665 8.99932,-6.25122l0.47205,-0.13685c0,0 2.5,0 2.5,2.5zM321.49035,194.78192c-0.0625,-0.0241 -0.124,-0.04954 -0.18444,-0.07638c-0.68201,0.34578 -1.11985,0.885 -1.13246,1.72255c-0.00744,0.49419 0.60944,0.43258 1.2673,0.30577v-1.57497h0.07693c-0.01155,-0.12534 -0.02075,-0.25099 -0.02733,-0.37697z" fill="#000000" stroke="none" stroke-width="0.5" stroke-linecap="butt"/><path d="M400.36406,139.70783c-1.05709,0.07671 -2.00982,0.19294 -2.49266,0.19294c0,0 -2.5,0 -2.5,-2.5c0,-2.5 2.5,-2.5 2.5,-2.5c0.64513,0 6.60613,-0.02118 6.92779,0.07586c4.66424,1.40708 7.06809,6.57467 3.9471,10.84336c-1.07965,1.47668 -6.9116,4.43973 -8.7146,2.93439c-1.60602,-1.34089 -1.77391,-4.03741 -1.45621,-6.10534c0.17623,-1.14708 0.97048,-2.04887 1.78858,-2.9412z" fill="#000000" stroke="none" stroke-width="0.5" stroke-linecap="butt"/><path d="M73.04824,352.60153l0.32616,-274.63604h102.31924l47.06685,0.68213l111.71743,47.7073l-158.78428,123.50689l18.5207,36.85583l-59.40829,24.15883l15.9803,40.52849z" fill="#000000" stroke="none" stroke-width="0" stroke-linecap="butt"/><path d="M205.11365,350.38772c-8.04569,0.25085 -16.08099,0.67923 -24.13708,0.96614c-4.08285,0.1454 -7.9204,1.41222 -12.06828,1.40904c-1.01249,-0.00077 -2.08177,0.32427 -3.03745,-0.0101c-0.07177,-0.02511 -0.14308,-0.05124 -0.21395,-0.07832l-0.00875,0.04809l-2.53564,-0.46102c-1.18845,-0.19326 -2.09567,-1.22442 -2.09567,-2.46747c0,-1.10109 0.71184,-2.03592 1.70042,-2.3694l2.42197,-0.88072c2.47065,-1.24043 4.94354,-2.47634 7.41691,-3.71134c6.82375,-2.839 13.01159,-6.89101 19.67241,-10.0713c5.77161,-2.75573 12.03041,-4.26212 17.79913,-7.02473c3.68283,-1.76369 6.24471,-4.48158 9.80197,-6.30797c0,0 2.23607,-1.11803 3.35411,1.11804c1.11803,2.23607 -1.11803,3.3541 -1.11803,3.3541c-0.01626,0.00784 -0.0325,0.0157 -0.04872,0.02359c0.30974,0.41627 0.49304,0.93219 0.49304,1.49093c0,0.92661 -0.50412,1.73548 -1.25306,2.1673l-1.2759,0.76555c-1.0816,3.54646 -1.74016,7.70139 -2.90651,11.44641l0.04565,0.00326c1.30732,0.08128 2.34247,1.16731 2.34247,2.49511c0,1.38071 -1.11929,2.5 -2.5,2.5h-2.02203c-0.08234,0.13804 -0.16663,0.27501 -0.25284,0.41082c0.75658,-0.01258 1.51476,-0.01934 2.27487,-0.01934h2.57853v0c1.38071,0 2.5,1.11929 2.5,2.5c0,0.58659 -0.20203,1.126 -0.5403,1.55244l-1.6272,2.09212l-0.07992,-0.06216c-0.12,0.18131 -0.24941,0.35668 -0.39021,0.52487c-1.52994,1.82768 -7.28903,2.59169 -9.46335,2.13322c-1.54421,-0.3256 -3.71495,-0.20934 -4.45473,-1.60337c-0.31243,-0.58873 -0.41045,-1.25006 -0.37184,-1.93376z" fill="#000000" stroke="none" stroke-width="0.5" stroke-linecap="butt"/><path d="M190.7871,284.39322c0,-1.38071 1.11929,-2.5 2.5,-2.5c1.38071,0 2.5,1.11929 2.5,2.5c0,1.38071 -1.11929,2.5 -2.5,2.5c-1.38071,0 -2.5,-1.11929 -2.5,-2.5z" fill="#000000" stroke="none" stroke-width="0.5" stroke-linecap="butt"/><path d="M345.65789,352.86316v-82.53751l77.14146,-27.37796l20.1718,-20.39921l78.09586,30.01038l100.85282,-60.67796l35.80789,160.98226z" fill="#000000" stroke="none" stroke-width="0" stroke-linecap="butt"/><path d="M355.9322,127.40209v-39.75994l7.87697,-2.25056l84.02101,28.13203l4.04465,-1.28906l81.34324,75.21044l-63.94927,9.15959l-62.57556,-59.5488z" fill="#000000" stroke="none" stroke-width="0" stroke-linecap="butt"/><path d="M304.5103,42.09533l-44.3038,-34.69292l58.83732,3.28176l44.06939,-1.40647l-35.86498,19.45617z" fill="#000000" stroke="#000000" stroke-width="5" stroke-linecap="butt"/><path d="M433.65764,52.03502l-53.09842,-40.90089l52.88802,0.69511l65.02127,-1.40647l-42.07295,28.25078z" fill="#000000" stroke="#000000" stroke-width="5" stroke-linecap="butt"/><path d="M709.48524,54.04741l-173.05872,-43.43246l104.26825,1.05048l70.23111,-2.50416l0.176,15.06539z" fill="#000000" stroke="#000000" stroke-width="5" stroke-linecap="butt"/><g fill="#a5d7ff" stroke="none" stroke-width="0" stroke-linecap="butt"><path d="M185.02354,-12.09022l2.98545,-2.98545l2.98545,2.98545l-2.98545,2.98545z"/><path d="M184.5197,-13.48799c0,-1.22041 0.98934,-2.20975 2.20975,-2.20975c1.22041,0 2.20975,0.98934 2.20975,2.20975c0,1.22041 -0.98934,2.20975 -2.20975,2.20975c-1.22041,0 -2.20975,-0.98934 -2.20975,-2.20975z"/><path d="M187.0733,-13.48799c0,-1.22041 0.98934,-2.20975 2.20975,-2.20975c1.22041,0 2.20975,0.98934 2.20975,2.20975c0,1.22041 -0.98934,2.20975 -2.20975,2.20975c-1.22041,0 -2.20975,-0.98934 -2.20975,-2.20975z"/></g></g></g></svg>