<svg version="1.1" xmlns="http://www.w3.org/2000/svg" xmlns:xlink="http://www.w3.org/1999/xlink" width="56.49913" height="53.03965" viewBox="0,0,56.49913,53.03965"><g transform="translate(-361.75044,-153.48017)"><g stroke-miterlimit="10"><path d="M364.25044,204.01982v-48.03965h51.49913v48.03965z" fill="#ffffff" stroke="#000000" stroke-width="5"/><path d="M410.85698,174.04975v22.75307c0,1.04718 -0.84891,1.89609 -1.89609,1.89609h-37.92179c-1.04718,0 -1.89609,-0.84891 -1.89609,-1.89609v-15.16871c0,-1.04718 0.84891,-1.89609 1.89609,-1.89609h10.74514v-13.27263c0,-1.04718 0.84891,-1.89609 1.89609,-1.89609h12.63933c1.04718,0 1.89609,0.84891 1.89609,1.89609v5.68827h10.74514c1.04718,0 1.89609,0.84891 1.89609,1.89609zM381.78425,183.5302h-8.84905v11.37654h8.84905zM394.42358,168.36148h-8.84715v26.54525h8.84715zM407.0648,175.94584h-8.84905v18.96089h8.84905z" fill="#000000" stroke="none" stroke-width="1"/></g></g></svg>