<svg version="1.1" xmlns="http://www.w3.org/2000/svg" xmlns:xlink="http://www.w3.org/1999/xlink" width="350.87735" height="351.42213" viewBox="0,0,350.87735,351.42213"><g transform="translate(-144.70424,-4.70426)"><g stroke-miterlimit="10"><path d="M149.49111,354.39311v-347.08871h344.10514v347.08871z" fill="#a9a9a9" stroke="none" stroke-width="0" stroke-linecap="butt"/><path d="M146.30592,240.67494v-233.95688h344.30215v233.95688z" fill-opacity="0.5098" fill="#ff7070" stroke="none" stroke-width="0" stroke-linecap="butt"/><path d="M460.22811,285.70635v-27.77868h31.50509v27.77868z" fill="#49e320" stroke="#000000" stroke-width="0" stroke-linecap="butt"/><path d="M147.20424,352.79585v-345.59159h345.59159v345.59159z" fill="none" stroke="#000000" stroke-width="5" stroke-linecap="butt"/><path d="M398.12501,78.92127h-250" fill="none" stroke="#000000" stroke-width="5" stroke-linecap="round"/><path d="M492.6528,58.17127l-49.99118,-50.18465" fill="none" stroke="#000000" stroke-width="5" stroke-linecap="round"/><path d="M489.64655,53.98857l-41.98194,-45.46431l41.78848,1.16079v29.60017z" fill="#000000" stroke="#000000" stroke-width="5" stroke-linecap="butt"/><path d="M489.78045,165.63028h-269.76404l66.32887,-1.35032l34.42991,-17.44815l31.22211,16.63763l66.19236,1.00389l74.89193,-71.46553" fill="none" stroke="#000000" stroke-width="5" stroke-linecap="round"/><path d="M383.71188,80.61582l-64.30115,-0.54034l-33.23127,33.23126l-30.47551,-30.4755l-29.82709,29.82709h-76.03452" fill="none" stroke="#000000" stroke-width="5" stroke-linecap="round"/><path d="M286.10024,110.41011l-25.1269,-28.5533l57.39213,-1.71319z" fill="#000000" stroke="#000000" stroke-width="5" stroke-linecap="butt"/><path d="M420.38653,165.66546l70.44903,-70.44902v70.44902z" fill="#000000" stroke="#000000" stroke-width="5" stroke-linecap="butt"/><path d="M149.49564,109.85731v-28.08166l105.7396,-0.34668l-30.85517,28.42835z" fill="#000000" stroke="#000000" stroke-width="5" stroke-linecap="butt"/><path d="M147.76222,351.64935v-243.52546h25.30817v243.52546z" fill="#000000" stroke="#000000" stroke-width="5" stroke-linecap="butt"/><path d="M199.24527,103.09691l-31.0285,31.02851" fill="none" stroke="#000000" stroke-width="5" stroke-linecap="round"/><path d="M194.30352,107.44126c2.76273,3.55209 -0.78936,6.31482 -0.78936,6.31482l-2.77754,2.1315c-4.03205,4.76793 -9.45284,12.11827 -16.62618,10.60378c-2.40099,-0.50692 -5.79397,-0.1112 -7.01228,-2.24133c-3.96664,-6.93536 5.92597,-8.26751 5.66721,-12.87076c0,0 0.55816,-4.46525 5.02341,-3.90709c4.46525,0.55815 3.90709,5.02341 3.90709,5.02341c-0.01739,0.09476 -0.0329,0.19016 -0.0469,0.28609c1.00368,-1.17391 1.96587,-2.35675 2.87688,-3.40765l3.46284,-2.72212c0,0 3.55209,-2.76274 6.31482,0.78935z" fill="#000000" stroke="none" stroke-width="0.5" stroke-linecap="butt"/><path d="M222.49254,253.44254v-83.08779h16.28096v83.08779z" fill="#000000" stroke="#000000" stroke-width="5" stroke-linecap="butt"/><path d="M234.46043,218.67711c0,-21.6065 17.51553,-39.12203 39.12203,-39.12203c21.60651,0 39.12204,17.51553 39.12204,39.12203c0,21.60651 -17.51553,39.12203 -39.12204,39.12203c-21.6065,0 -39.12203,-17.51553 -39.12203,-39.12203z" fill="#000000" stroke="#000000" stroke-width="5" stroke-linecap="butt"/><path d="M302.73186,317.7281c0,-18.21152 17.51553,-32.97487 39.12203,-32.97487c21.60651,0 39.12204,14.76335 39.12204,32.97487c0,18.21152 -17.51553,32.97485 -39.12204,32.97485c-21.60651,0 -39.12203,-14.76335 -39.12203,-32.97485z" fill="#000000" stroke="#000000" stroke-width="5" stroke-linecap="butt"/><path d="M310.62978,200.18081c0,-21.6065 10.78152,-37.25147 32.38803,-37.25147c21.6065,0 45.85604,15.64497 45.85604,37.25147c0,21.60651 -17.51553,39.12204 -39.12203,39.12204c-21.6065,0 -39.12204,-17.51553 -39.12204,-39.12204z" fill="#000000" stroke="#000000" stroke-width="5" stroke-linecap="butt"/><path d="M387.11203,220.15343c0,-21.6065 17.51553,-39.12204 39.12204,-39.12204c21.60651,0 39.12203,17.51553 39.12203,39.12204c0,21.60651 -17.51553,39.12203 -39.12203,39.12203c-21.60651,0 -39.12204,-17.51553 -39.12204,-39.12203z" fill="#000000" stroke="#000000" stroke-width="5" stroke-linecap="butt"/><path d="M355.40494,312.57426c0,-21.60651 11.90289,-28.96582 33.5094,-28.96582c21.60651,0 44.73467,7.35933 44.73467,28.96582c0,21.60651 -17.51553,39.12203 -39.12203,39.12203c-21.60651,0 -39.12204,-17.51553 -39.12204,-39.12203z" fill="#000000" stroke="#000000" stroke-width="5" stroke-linecap="butt"/><path d="M490.81261,257.88082h-66.01532" fill="none" stroke="#000000" stroke-width="5" stroke-linecap="round"/><path d="M416.77924,287.01304h73.76611" fill="none" stroke="#000000" stroke-width="5" stroke-linecap="round"/><path d="M407.1751,293.04474c-0.81028,0.00552 -1.69669,0.5766 -2.42145,0.21422c-1.35208,-0.67604 -2.90165,-1.58983 -3.37968,-3.02393c-2.7329,-8.19871 10.54143,-5.96158 13.28465,-5.92302c0.55475,0.00779 3.6892,-0.21729 4.58134,0.43078c3.76866,-0.14869 8.85656,1.27086 11.12831,2.89621c3.13657,0.06254 5.99902,1.05517 9.00817,1.71786c2.10038,-3.08893 8.73363,-3.87676 9.88799,-1.85662l0.52693,0.92212c9.08121,-0.5027 18.08393,1.0904 27.12325,0.5942c4.05496,-0.22258 16.52708,-2.68273 16.52708,4.23273c0,1.5664 -0.86989,2.70262 -2.22006,3.5316l0.04216,0.07378l0.59261,0.16162l0.45675,1.67477l0.86127,1.50721l-0.30476,0.53332l0.17998,0.65992l-0.54412,0.90687v0.32764l-0.13291,0.53164v1.55783l0.02804,0.04206l-0.02804,0.12617v0.12538l-0.25078,1.00311l-0.01649,0.07421v2.10356l0.02803,0.04206l-0.02803,0.12617v0.12539l-0.25078,1.00311l-0.2243,1.00936l-0.05608,0.11215l-0.03134,0.12539l-0.04389,0.02508l-0.18231,0.36464l-0.0131,0.05241v1.55783l0.02803,0.04206l-0.02803,0.12617v0.12538l-0.25078,1.00311l-0.01649,0.07421v0.25903l-0.17545,0.70178l-0.05548,0.72125l-0.03634,0.10903v2.2097l-0.00528,0.0211c0.82148,0.3757 1.39101,0.64405 1.77351,1.14366l0.00004,0.00002c0.21643,0.2827 0.37297,0.63945 0.48139,1.13157c0.10159,0.37552 0.1558,0.77051 0.1558,1.17816c0.25034,3.52475 -0.62441,6.15884 -0.53454,9.42595c0.15298,5.56145 3.16801,6.90248 1.19401,14.44911c-0.86985,3.32547 0.2586,7.65229 -4.8922,7.88632c-9.15245,0.41586 -19.01015,-0.13425 -28.08263,-0.26727c-3.413,-0.05004 -14.25927,1.26725 -17.99941,-1.63157c-0.25655,-0.19883 -0.48707,-0.42939 -0.69068,-0.68458l-0.45309,0.09062l-0.4477,-0.02132l-0.43482,0.1087h-0.33882l-0.10903,0.03634l-0.72125,0.05548l-0.70178,0.17545h-0.25903l-0.07421,0.01649l-1.00311,0.25078h-0.12538l-0.12617,0.02803l-0.03341,-0.02227l-0.00641,0.00142l-0.21585,0.16188l-0.37698,0.15873l-0.31056,0.26619l-1.60361,0.80181l-0.31618,0.07026l-0.27326,0.17389l-0.49841,0.16614l-1.31757,0.65879l-0.31618,0.07026l-0.27326,0.17389l-0.74543,0.24847l-0.0453,0.05202l-1.1628,0.05537l-1.16069,0.08929l-0.0514,-0.046l-0.84114,-0.16823h-1.15802l-0.70178,-0.17545l-0.72125,-0.05548l-0.91084,-0.30361h-0.07155l-0.70178,-0.17545l-0.72125,-0.05548l-0.80181,-0.26727l-0.05711,-0.03634h-3.83889l-0.04206,0.02803l-0.12617,-0.02803h-0.12539l-1.00311,-0.25078l-0.68473,-0.15216l-0.03994,0.01089l-0.05233,-0.0314l-0.23235,-0.05163l-0.11215,-0.05608l-0.12539,-0.03134l-0.02508,-0.04389l-0.27192,-0.13596l-0.54923,-0.47077l-0.07872,-0.04724l-0.11896,-0.03965l-0.20187,-0.12847l-0.17511,0.02189l-0.7569,-0.61499l-0.82278,-0.52359l-0.03461,-0.17304l-0.12993,-0.10557l-0.57666,-0.14416l-0.15598,-0.27296l-0.73182,-0.39031l-0.49314,-1.75338l-0.86906,-1.52085l0.29575,-0.51756l-0.16139,-0.57385l1.21197,-1.26467l0.90367,-1.58142l0.80464,-0.20116l0.21753,-0.22698h0.6904l0.39977,-0.09995l0.25957,-0.34609l2.11869,-2.91319l0.08125,-0.06803l0.04415,-0.09633l0.77127,-0.96408l0.50489,-1.00979l0.27033,-0.67581l-0.00238,-0.00873l0.01762,-0.02936l0.17946,-0.44866l0.53023,-0.73416l0.46594,-0.77656l0.01818,-0.01817l0.47522,-0.95045l0.08321,-0.09708l0.03462,-0.12309l0.9234,-1.61595l-0.00347,-0.05043l0.08694,-0.09564l0.06221,-0.10887l0.71542,-0.74652l0.69552,-0.76508l0.10433,-0.06955l0.08943,-0.09332h0.03944l0.35875,-0.44844l0.00172,-0.03091l0.07322,-0.06277l0.18623,-0.23278l0.4672,-0.35597l0.44415,-0.88831l0.146,-4.23392c-0.47445,-0.38043 -0.87018,-0.855 -1.15885,-1.39538c-0.51616,-0.43144 -0.97618,-0.88991 -1.34836,-1.34074c-4.43338,-5.37036 -4.50623,-11.72194 -4.88316,-18.26655l-0.23607,-0.27542l-0.47523,-0.95046l-2.69085,-2.69085l-0.37218,-0.62029l-0.47077,-0.54923l-0.26727,-0.53454l-0.05163,-0.23235l-0.0314,-0.05233l0.00985,-0.0361l-0.17097,-0.26866l-0.16613,-0.49841l-0.39152,-0.78303l-0.25305,-1.13876c-1.65634,-0.11078 -3.15444,-0.24055 -4.0789,-0.23424zM484.16376,326.57455l-0.00068,0.00068c0.0002,0.0002 0.00041,0.0004 0.00062,0.0006c0.00002,-0.00043 0.00004,-0.00085 0.00006,-0.00128z" fill="#000000" stroke="none" stroke-width="0.5" stroke-linecap="butt"/><path d="M379.14684,350.64056c-0.41431,0.23305 -0.84044,0.37311 -1.27393,0.45635c-0.31327,0.06928 -0.63881,0.10592 -0.97287,0.10615c-1.01108,0.04339 -2.04333,-0.07043 -3.04317,0.09182c-2.06523,0.33514 -17.02432,0.49126 -18.90765,-3.14532c-1.32753,-2.56338 0.65306,-6.80723 3.52181,-7.04361c2.74257,-0.22598 5.91588,1.34517 8.73259,1.36438c0.5747,0.00392 5.18578,-0.19302 8.51909,-0.11255c0.37432,-0.10089 0.76794,-0.15472 1.17413,-0.15472c0.68453,0 1.33337,0.15285 1.91424,0.42627c1.52805,0.71927 2.58576,2.27298 2.58576,4.07373c0,1.46443 -0.69952,2.76548 -1.78264,3.58723c-0.13854,0.13412 -0.29301,0.2522 -0.46736,0.35027z" fill="#000000" stroke="none" stroke-width="0.5" stroke-linecap="butt"/><path d="M269.39549,256.81174l-33.67583,-4.00903" fill="#000000" stroke="#000000" stroke-width="5" stroke-linecap="round"/><path d="M247.35379,254.15496c-1.47272,0.98181 -7.55702,-1.05141 -7.66052,-2.91428c-0.45725,-0.70437 -0.72282,-1.54466 -0.72282,-2.44698c0,-0.42772 0.05967,-0.84151 0.17115,-1.23349c-0.06355,-0.20227 -0.07808,-0.39697 -0.0286,-0.57842c-0.09306,-0.36049 -0.14256,-0.73849 -0.14256,-1.12805c0,-2.48528 2.01472,-4.5 4.5,-4.5c1.19943,-0.92864 3.74104,2.04446 4.88127,2.34726c4.19407,1.1138 12.45144,0.53675 8.12009,8.11662c-1.02339,1.79094 -4.56828,1.89709 -7.91784,1.28338c-0.32096,0.37839 -0.7187,0.73298 -1.20017,1.05396z" fill="#000000" stroke="none" stroke-width="0.5" stroke-linecap="butt"/><path d="M397.38741,285.57509l-56.12639,-0.80181l50.24648,-0.80181" fill="none" stroke="#000000" stroke-width="5" stroke-linecap="round"/><path d="M384.02399,283.9715l-49.97921,4.00903" fill="none" stroke="#000000" stroke-width="5" stroke-linecap="round"/><path d="M428.21238,253.88894v-86.06046h63.87718v86.06046z" fill="#000000" stroke="#000000" stroke-width="5" stroke-linecap="butt"/><path d="M372.70962,195.89168v-29.6668h57.72999v29.6668z" fill="#000000" stroke="#000000" stroke-width="5" stroke-linecap="butt"/><path d="M237.79841,202.84067v-37.95213h89.00042v37.95213z" fill="#000000" stroke="#000000" stroke-width="5" stroke-linecap="butt"/><path d="M347.97244,233.57655l-61.47176,21.11421" fill="none" stroke="#000000" stroke-width="5" stroke-linecap="round"/><path d="M358.87105,239.18917l62.00629,19.77787" fill="none" stroke="#000000" stroke-width="5" stroke-linecap="round"/><path d="M377.1949,226.79327c-4.95213,-4.77527 -0.33556,-10.75563 5.57491,-8.94374c2.63326,0.80724 4.13028,6.59043 5.81853,8.31476c5.17283,5.2834 11.05633,9.10643 15.13954,15.41153c1.33432,2.06041 2.12461,6.95489 0.34316,8.65183c-8.71447,8.3011 -15.52481,-2.7953 -21.91465,-4.68418c-3.40355,-1.00611 -12.66604,-3.01637 -15.37914,-5.11917c-0.46589,-0.3611 -2.24971,-3.93215 -2.25,-3.9375c-0.04717,-0.84906 1.89294,-1.64077 1.26572,-2.215c-0.97181,-0.8897 -1.54087,-2.34872 -1.48064,-3.66491c0.33042,-7.22078 8.19691,-4.04061 13.00511,-3.55979z" fill="#000000" stroke="none" stroke-width="0.5" stroke-linecap="butt"/><path d="M336.29599,238.11499c-0.61399,0.67498 -1.2158,1.02273 -1.81236,1.19561c-0.48807,0.18136 -1.01612,0.28046 -1.56733,0.28046c-0.4256,0 -0.83741,-0.05909 -1.22765,-0.1695c-0.73219,-0.00093 -1.47284,0.09456 -2.23475,0.56738c-8.44156,5.23855 -17.75813,6.07218 -26.56159,10.02559c-2.83868,1.27478 -7.70116,3.96182 -10.30831,1.35466c-2.09879,-2.09879 -1.50171,-4.7807 0.12928,-6.52685c-0.93869,-2.90591 2.22973,-5.1329 4.56963,-6.53684c0.65366,-0.3922 2.52281,-0.72669 2.54706,-1.14093c0.26497,-4.52634 1.85494,-4.38692 4.7547,-6.56174l-1.55887,-2.72802c1.72406,-3.0171 1.24858,-4.38484 4.5,-4.5c4.54071,-0.16083 9.0897,-0.15287 13.6307,0c0.1108,0.00373 0.22508,0.00799 0.34261,0.01284c4.8494,0.20033 15.21928,1.40941 13.7197,7.83627c1.31604,0.78527 2.1975,2.22326 2.1975,3.86713c0,0.34616 -0.03909,0.68319 -0.11308,1.00691c-0.12198,0.70534 -0.44295,1.39667 -1.00723,2.01701z" fill="#000000" stroke="none" stroke-width="0.5" stroke-linecap="butt"/><path d="M324.53708,294.59371l-69.32113,18.67674l-107.51132,-12.77724" fill="none" stroke="#000000" stroke-width="5" stroke-linecap="round"/><path d="M174.98809,353.6264l-1.89761,-48.95842c0,0 52.66793,10.24711 78.56119,10.24711c26.58893,0 64.89837,-19.73518 64.89837,-19.73518l15.93995,58.44649z" fill="#000000" stroke="#000000" stroke-width="5" stroke-linecap="butt"/><path d="M332.73134,152.13766c0.32584,0.2826 1.95412,1.11284 2.72063,1.50535c0.12198,0.0563 0.24101,0.1179 0.3568,0.18451c1.35026,0.77672 2.25944,2.2339 2.25944,3.90343c0,0.27066 -0.0239,0.53575 -0.06969,0.79325c1.34579,0.55351 2.32436,0.94126 2.52022,1.03866c0.11164,0.05552 0.23186,0.11076 0.35578,0.16739c1.43305,0.75269 2.41047,2.25544 2.41047,3.98649c0,2.13854 -1.49176,3.92867 -3.49146,4.38655c-0.17255,0.06435 -0.35582,0.10736 -0.55163,0.1254c-4.62945,0.42644 -8.48518,-5.39498 -13.14446,-3.37241c-5.86278,2.54501 -14.52618,5.13878 -20.98248,5.23102c-5.02018,0.07172 -9.87334,0.97501 -11.04695,-4.5c-0.80015,-3.73276 2.94606,-3.19474 3.8842,-4.91859c2.13146,-3.91658 7.28464,-3.81963 10.60009,-6.30621c2.29606,-1.72205 5.97085,-1.98206 8.11919,-3.8869c1.5728,-1.39453 0.49861,-3.50753 2.76291,-4.74846c0.28634,-0.15692 4.20379,-0.43684 4.52804,-0.25156c0.62842,0.3591 1.06236,0.78945 1.37065,1.26618c2.76728,0.37247 5.69996,3.92297 7.39826,5.3959z" fill="#000000" stroke="none" stroke-width="0.5" stroke-linecap="butt"/></g></g></svg>