<svg version="1.1" xmlns="http://www.w3.org/2000/svg" xmlns:xlink="http://www.w3.org/1999/xlink" width="469.38571" height="401.23426" viewBox="0,0,469.38571,401.23426"><g transform="translate(-147.56305,20.2215)"><g data-paper-data="{&quot;isPaintingLayer&quot;:true}" fill-rule="nonzero" stroke-linejoin="miter" stroke-miterlimit="10" stroke-dasharray="" stroke-dashoffset="0" style="mix-blend-mode: normal"><path d="M166.41842,180.21679c0,-109.3183 100.29501,-197.93829 224.01517,-197.93829c123.72016,0 224.01517,88.61999 224.01517,197.93829c0,109.3183 -100.29501,197.93829 -224.01517,197.93829c-123.72016,0 -224.01517,-88.61999 -224.01517,-197.93829z" fill="#a8a8a8" stroke="#000000" stroke-width="5" stroke-linecap="butt"/><path d="M380.96262,378.51276l5.44684,-134.35546" fill="none" stroke="#0091ff" stroke-width="5" stroke-linecap="round"/><path d="M414.55148,120.69553l58.09966,-121.64616" fill="none" stroke="#0091ff" stroke-width="5" stroke-linecap="round"/><path d="M197.21908,81.75988l142.70534,55.63067l-15.64613,37.61689l-156.1955,-20.93584c0,0 7.23618,-28.10758 10.01919,-37.84393c0.52796,-1.84707 19.11709,-34.46779 19.11709,-34.46779z" fill="#49e320" stroke="#000000" stroke-width="0" stroke-linecap="butt"/><path d="M314.62304,180c0,-36.78359 33.74742,-66.60258 75.37696,-66.60258c41.62955,0 75.37696,29.81899 75.37696,66.60258c0,36.78359 -33.74742,66.60258 -75.37696,66.60258c-41.62955,0 -75.37696,-29.81899 -75.37696,-66.60258z" fill="#000000" stroke="#000000" stroke-width="5" stroke-linecap="butt"/><path d="M199.95672,80.34534l167.76125,66.06142" fill="none" stroke="#000000" stroke-width="5" stroke-linecap="round"/><path d="M166.41842,180.2168c0,-109.3183 100.29501,-197.93829 224.01517,-197.93829c123.72016,0 224.01517,88.61999 224.01517,197.93829c0,109.3183 -100.29501,197.93829 -224.01517,197.93829c-123.72016,0 -224.01517,-88.61999 -224.01517,-197.93829z" fill="none" stroke="#000000" stroke-width="5" stroke-linecap="butt"/><path d="M337.38787,223.27774l-44.02865,44.02865" fill="none" stroke="#000000" stroke-width="5" stroke-linecap="round"/><text transform="translate(147.81305,21.06277) scale(0.5,0.5)" font-size="40" xml:space="preserve" fill="#ffffff" fill-rule="nonzero" stroke="none" stroke-width="1" stroke-linecap="butt" stroke-linejoin="miter" stroke-miterlimit="10" stroke-dasharray="" stroke-dashoffset="0" font-family="&quot;Grand9K Pixel&quot;, Pixel" font-weight="normal" text-anchor="start" style="mix-blend-mode: normal"><tspan x="0" dy="0">Circle :O</tspan></text></g></g></svg>