<svg version="1.1" xmlns="http://www.w3.org/2000/svg" xmlns:xlink="http://www.w3.org/1999/xlink" width="352.8956" height="350.59159" viewBox="0,0,352.8956,350.59159"><g transform="translate(-144.70424,-4.70427)"><g stroke-miterlimit="10"><path d="M149.49111,354.30634v-347.08871h344.10514v347.08872z" fill="#a9a9a9" stroke="none" stroke-width="0" stroke-linecap="butt"/><path d="M243.23902,284.12914v-111.19129h135.13856v111.19129z" fill-opacity="0.5098" fill="#ff7070" stroke="none" stroke-width="0" stroke-linecap="butt"/><path d="M350.34894,265.75371v-95.63491h96.63619v95.63491z" fill="#49e320" stroke="#000000" stroke-width="0" stroke-linecap="butt"/><path d="M287.96126,76.1256v-65.27123" fill="none" stroke="#0091ff" stroke-width="5" stroke-linecap="round"/><path d="M487.09641,12.16482v62.35566" fill="none" stroke="#ffad00" stroke-width="7.5" stroke-linecap="round"/><path d="M487.09641,152.46503v-70.15767" fill="none" stroke="#00feff" stroke-width="7.5" stroke-linecap="round"/><path d="M492.74988,78.92127h-344.62486" fill="none" stroke="#000000" stroke-width="5" stroke-linecap="round"/><path d="M147.20424,352.79585v-345.59159h345.59159v345.59159z" fill="none" stroke="#000000" stroke-width="5" stroke-linecap="butt"/><path d="M489.73075,176.11637h-52.68286h-118.26074l-101.80699,58.92366v-79.54694h278.11968" fill="none" stroke="#000000" stroke-width="5" stroke-linecap="round"/><path d="M149.988,296.34007l124.52903,-30.9861l67.23399,-4.0925h147.39509" fill="none" stroke="#000000" stroke-width="5" stroke-linecap="round"/><path d="M303.0138,186.07561l-12.7114,38.35333l-22.37161,-17.60769" fill="none" stroke="#000000" stroke-width="5" stroke-linecap="round"/><path d="M306.67242,264.76932l18.70859,-29.81681l22.23324,34.14077" fill="none" stroke="#000000" stroke-width="5" stroke-linecap="round"/><path d="M148.5787,348.93333v-52.02768l126.52185,-27.98458l70.86715,-6.15494l143.96959,0.66601l-0.41965,87.86609z" fill="#000000" stroke="#000000" stroke-width="5" stroke-linecap="butt"/><path d="M324.33709,260.86335c-0.44642,0.03078 -0.90593,0.10747 -1.3656,0.17522c-0.08143,1.43154 -1.55491,2.06303 -1.55491,2.06303l-4.65715,-2.74358c-0.62496,0.61055 -1.24331,1.21366 -1.83848,1.80912c0,0 -1.76777,1.76776 -3.53554,0c-1.76776,-1.76776 0,-3.53553 0,-3.53553c1.60077,-1.59994 3.35832,-3.24328 4.9524,-4.94187c0.51309,-2.8798 2.35882,-5.87196 3.91194,-7.93004c0.45596,-0.6042 0.53846,-1.46242 1.06645,-2.00481c0.02222,-0.02283 0.04451,-0.0456 0.06685,-0.06832l-0.01743,-0.01128l2.20178,-3.40276c0.44177,-0.70639 1.2266,-1.17623 2.12117,-1.17623c1.38071,0 2.5,1.11929 2.5,2.5c0,0.14474 -0.0123,0.2866 -0.03591,0.4246l-0.05239,0.34055c0.3903,0.06112 0.75065,0.21253 1.05902,0.4322l2.60253,1.80175l-0.13843,0.19997c1.98726,0.84866 3.41999,2.26915 4.26637,5.36226c0.38907,1.42188 1.53033,3.21321 1.05642,4.48404l1.08544,0.30151c1.08263,0.27453 1.88359,1.25545 1.88359,2.42344c0,1.38071 -1.11929,2.5 -2.5,2.5c-0.14474,0 -0.28661,-0.0123 -0.42461,-0.03591l-2.29584,-0.35321c-3.37424,0.55888 -6.95021,1.15087 -10.35766,1.38585zM323.20619,253.12474c0.00024,-0.02331 0.00046,-0.04669 0.00068,-0.07014c-0.01256,0.02048 -0.02516,0.04093 -0.03778,0.06137c0.01238,0.00291 0.02474,0.00583 0.0371,0.00877z" fill="#000000" stroke="none" stroke-width="0.5" stroke-linecap="butt"/><path d="M289.31296,221.72837c-2.29787,0.9848 -0.15868,2.59191 -0.15868,2.59191l-0.66305,-1.55925c-0.44051,-1.29677 -0.74139,-2.31457 -0.88251,-3.25131c-0.57103,-0.36721 -1.13395,-0.75852 -1.67588,-1.03044c-3.00425,-1.50741 -5.52541,-4.37944 -8.36347,-6.1799c-2.30295,-1.46098 -4.75133,-2.76641 -7.07123,-4.24254c0,0 -2.10915,-1.34219 -0.76696,-3.45134c1.34219,-2.10915 3.45135,-0.76696 3.45135,-0.76696c0.35143,0.22367 0.70257,0.44675 1.05339,0.66945c-0.01584,-0.08199 -0.02914,-0.16531 -0.03979,-0.24999c-0.20027,-1.59128 1.81407,-2.65753 2.89025,-3.8467c1.82735,-2.0192 4.8902,-4.19732 7.4492,-5.10381c1.80325,-0.63879 3.91156,-0.38076 5.59052,-1.29775c2.84996,-1.55655 2.72478,-4.42867 6.61973,-5.4015c1.80817,-0.45163 3.64448,0.78204 5.46672,1.17307c-0.18011,1.64293 -0.1542,3.32176 -0.54033,4.92881c-0.72187,3.00438 -3.148,5.3935 -4.60391,8.01503c-1.88933,3.40196 -2.85894,6.76022 -3.79735,10.50095c-0.15367,0.61255 -0.43262,1.7748 -0.76243,2.98685c0.00755,0.02559 0.01503,0.05119 0.02245,0.07682c0.22967,0.79332 -0.33266,1.65008 -0.21841,2.46803c0.1146,0.82049 0.59159,1.54771 0.88739,2.32156l-2.31359,2.4862c0,0 0.72447,-2.82198 -1.5734,-1.83718zM284.76872,207.21593c-0.01428,0.0099 -0.0286,0.01975 -0.04295,0.02956c0.00626,0.00728 0.01257,0.01456 0.01892,0.02181c0.008,-0.01717 0.01601,-0.03429 0.02402,-0.05137zM295.17843,196.2562c-0.02305,0.01953 -0.04602,0.03891 -0.06894,0.05814c0.00714,0.01393 0.01423,0.02789 0.02127,0.04187c0.01589,-0.03324 0.03178,-0.06659 0.04768,-0.10001z" fill="#000000" stroke="none" stroke-width="0.5" stroke-linecap="butt"/><path d="M217.36145,233.4159l-0.55308,-77.4649l27.10053,-1.40422l247.14697,0.70199l0.97196,20.42674l-171.89925,-0.51932z" fill="#000000" stroke="none" stroke-width="0" stroke-linecap="butt"/><path d="M445.10794,281.89698v-105.66667h46.66667v105.66667z" fill="#000000" stroke="none" stroke-width="0" stroke-linecap="butt"/></g></g></svg>