<svg version="1.1" xmlns="http://www.w3.org/2000/svg" xmlns:xlink="http://www.w3.org/1999/xlink" width="36.3442" height="38.0179" viewBox="0,0,36.3442,38.0179"><g transform="translate(-549.07791,-154.74105)"><g fill="#ffffff" stroke="#000000" stroke-miterlimit="10"><path d="M584.92242,172.57523l-0.0034,0.06326l-0.47451,6.01222c-0.4372,6.11619 -3.99352,6.77817 -5.50163,6.77817c-0.5445,0 -1.11726,-0.07801 -1.7081,-0.2305c-0.08025,0.57392 -0.07238,1.58157 -0.06781,2.3656l0.0068,1.08675c0.0102,0.79191 0.02487,1.98826 -0.81223,2.83779c-0.34791,0.35131 -0.98054,0.77043 -2.02441,0.77043h-14.17429c-1.04381,0 -1.67759,-0.41913 -2.02441,-0.77159c-0.83818,-0.84837 -0.82241,-2.04581 -0.81223,-2.83664l0.00564,-1.08906c0.00564,-0.78294 0.01243,-1.78944 -0.06666,-2.36336c-0.5852,0.15139 -1.16129,0.2305 -1.7081,0.2305c-1.50819,0 -5.06559,-0.66198 -5.50163,-6.78945l-0.47783,-6.0642c-0.15704,-4.54481 1.44825,-8.7981 4.52102,-11.97931c3.28736,-3.40267 8.08182,-5.35479 13.15073,-5.35479c5.07006,0 9.86453,1.95211 13.15304,5.35587c3.07161,3.18014 4.67697,7.43343 4.52001,11.97831zM578.2955,162.63154c-2.73946,-2.83555 -6.76573,-4.46231 -11.04614,-4.46231c-4.27925,0 -8.30551,1.62676 -11.04519,4.46224c-2.50905,2.59609 -3.82173,6.07895 -3.70201,9.8103l0.47219,5.97838c0.19435,2.71127 1.06195,4.08049 2.5825,4.08049c0.35022,0 0.74224,-0.06442 1.16585,-0.19095c1.07887,-0.31067 1.95999,-0.10057 2.59378,0.53885c0.96926,0.97605 0.95914,2.55199 0.9433,4.73228l-0.00564,1.10598c-0.00225,0.18299 -0.00564,0.44956 0.00904,0.64391h3.092v-3.61618h2.34188v3.61618h3.10443v-3.61625h2.34297v3.61618h3.09085c0.01583,-0.19427 0.01243,-0.46092 0.0102,-0.64166l-0.00564,-1.10482c-0.01583,-2.18254 -0.02596,-3.75962 0.9433,-4.73568c0.63711,-0.64166 1.53978,-0.84274 2.58134,-0.54225c0.43604,0.12992 0.82806,0.19435 1.17828,0.19435c1.51947,0 2.38931,-1.36915 2.5825,-4.06914l0.47111,-5.98966c0.12197,-3.73136 -1.1918,-7.21421 -3.70091,-9.81023z"/><path d="M569.78219,181.56746c0.28125,0.56265 -0.28248,1.40761 -1.12522,1.12522c-0.84389,-0.28016 -1.40646,-0.98394 -1.40646,-0.98394c0,0 -0.56257,0.70377 -1.40646,0.98394c-0.84389,0.28241 -1.40646,-0.56265 -1.1263,-1.12522c0.28241,-0.56257 1.83007,-3.93814 2.53276,-3.93814c0.70377,0 2.24919,3.37557 2.53167,3.93814z"/><path d="M564.76859,172.96255l-0.30279,2.12723c-0.23389,2.23567 -2.23567,3.8568 -4.47135,3.62182c-2.23336,-0.23498 -3.85564,-2.23452 -3.62067,-4.47019l0.30279,-2.12723c0.23498,-2.23452 2.23676,-3.8568 4.47019,-3.62182c2.23567,0.23498 3.85564,2.23459 3.62182,4.47019z"/><path d="M578.1261,174.2414c0.23498,2.23567 -1.3873,4.23522 -3.62182,4.47019c-2.23452,0.23498 -4.23638,-1.38615 -4.47135,-3.62182l-0.30164,-2.12723c-0.23382,-2.23567 1.38615,-4.23522 3.62182,-4.47019c2.23336,-0.23498 4.23638,1.3873 4.47019,3.62182z"/></g></g></svg>