<svg version="1.1" xmlns="http://www.w3.org/2000/svg" xmlns:xlink="http://www.w3.org/1999/xlink" width="350.59159" height="350.59159" viewBox="0,0,350.59159,350.59159"><g transform="translate(-144.70424,-4.70427)"><g stroke-miterlimit="10"><path d="M149.49111,354.39312v-347.08871h344.10514v347.08872z" fill="#a9a9a9" stroke="none" stroke-width="0" stroke-linecap="butt"/><path d="M214.63378,217.90838l-22.36652,51.94805" fill="none" stroke="#0091ff" stroke-width="5" stroke-linecap="round"/><path d="M265.49391,290.92347l15.34205,-42.2286l39.93458,11.74161l-12.61628,43.21979z" fill="#49e320" stroke="#000000" stroke-width="0" stroke-linecap="butt"/><path d="M256.51383,82.28964h87.97393" fill="none" stroke="#a605dc" stroke-width="9" stroke-linecap="round"/><path d="M283.48789,76.1256v-65.27123" fill="none" stroke="#0091ff" stroke-width="5" stroke-linecap="round"/><path d="M398.12502,78.92127h-250" fill="none" stroke="#000000" stroke-width="5" stroke-linecap="round"/><path d="M307.41871,303.2443l14.49796,-42.75484l-148.00102,-51.94174l114.45046,-85.53393l202.98183,67.59723" fill="none" stroke="#000000" stroke-width="5" stroke-linecap="round"/><path d="M151.85916,258.63928v-94.92187" fill="none" stroke="#be00ff" stroke-width="5" stroke-linecap="round"/><path d="M149.70103,257.29041l157.21392,45.89888" fill="none" stroke="#000000" stroke-width="5" stroke-linecap="round"/><path d="M147.20424,352.79586v-345.59159h345.59159v345.59159z" fill="none" stroke="#000000" stroke-width="5" stroke-linecap="butt"/><path d="M149.16785,161.81955l62.38152,-81.04265" fill="none" stroke="#000000" stroke-width="5" stroke-linecap="round"/><path d="M492.44303,82.75516c0,0 -11.11876,32.43765 -25.36276,47.53019c-10.34101,10.95705 -33.75975,9.7146 -34.72016,10.05124c-57.70541,4.23467 -83.53028,-4.74121 -83.53028,-4.74121" fill="none" stroke="#000000" stroke-width="5" stroke-linecap="round"/><path d="M149.41097,350.47124v-90.05246l158.68467,45.02623l15.98156,-45.19438l-146.17858,-50.30916l108.90373,-83.41573c0,0 52.40452,2.07926 77.43102,12.0691c29.65991,11.83937 82.81243,3.5361 93.39467,2.67349c10.58224,-0.86261 33.19058,-52.52661 33.19058,-52.52661l1.79546,104.21006l-1.99601,159.56678z" fill="#000000" stroke="#000000" stroke-width="5" stroke-linecap="butt"/><path d="M148.30722,158.02659v-78.24319l58.93643,1.52421z" fill="#000000" stroke="#000000" stroke-width="5" stroke-linecap="butt"/></g></g></svg>