<svg version="1.1" xmlns="http://www.w3.org/2000/svg" xmlns:xlink="http://www.w3.org/1999/xlink" width="192" height="196.05048" viewBox="0,0,192,196.05048"><g transform="translate(-224,-137.84375)"><g fill="none" stroke="#fff200" stroke-miterlimit="10"><path d="M233.25,176.90625c0,-16.46499 13.34751,-29.8125 29.8125,-29.8125c16.46499,0 29.8125,13.34751 29.8125,29.8125c0,16.46499 -13.34751,29.8125 -29.8125,29.8125c-16.46499,0 -29.8125,-13.34751 -29.8125,-29.8125z" stroke-width="18.5" stroke-linecap="butt"/><path d="M301.5625,176.03586h105.1875" stroke-width="18.5" stroke-linecap="round"/><path d="M399.6875,179.15625v31.76471" stroke-width="14.5" stroke-linecap="round"/><path d="M365.9375,184.11949v28.78676" stroke-width="14.5" stroke-linecap="round"/><g><path d="M281.75,313.77103c0,-7.25978 5.88521,-13.145 13.14499,-13.145c7.25978,0 13.14499,5.88522 13.14499,13.145c0,7.25978 -5.88522,13.14499 -13.14499,13.14499c-7.25978,0 -13.14499,-5.88521 -13.14499,-13.14499z" stroke-width="12" stroke-linecap="butt"/><path d="M311.8705,313.38726h46.3795" stroke-width="12" stroke-linecap="round"/><path d="M355.13599,314.76311v14.00576" stroke-width="8.5" stroke-linecap="round"/><path d="M340.25486,316.95151v12.69272" stroke-width="8.5" stroke-linecap="round"/></g><g><path d="M300.3728,254.71546c0,-2.71119 2.19786,-4.90905 4.90904,-4.90905c2.71119,0 4.90904,2.19786 4.90904,4.90905c0,2.71119 -2.19786,4.90905 -4.90904,4.90905c-2.71119,0 -4.90904,-2.19786 -4.90904,-4.90905z" stroke-width="5" stroke-linecap="butt"/><path d="M311.62141,254.57214h17.32059" stroke-width="5" stroke-linecap="round"/><path d="M327.77906,255.08595v5.2305" stroke-width="4" stroke-linecap="round"/><path d="M322.22165,255.90322v4.74014" stroke-width="3" stroke-linecap="round"/></g></g></g></svg>