<svg version="1.1" xmlns="http://www.w3.org/2000/svg" xmlns:xlink="http://www.w3.org/1999/xlink" width="453.03034" height="401.23426" viewBox="0,0,453.03034,401.23426"><g transform="translate(-93.91842,20.22148)"><g stroke-miterlimit="10"><path d="M96.41842,180.21681c0,-109.3183 100.29501,-197.93829 224.01517,-197.93829c123.72016,0 224.01517,88.61999 224.01517,197.93829c0,109.3183 -100.29501,197.93829 -224.01517,197.93829c-123.72016,0 -224.01517,-88.61999 -224.01517,-197.93829z" fill="#a8a8a8" stroke="#000000" stroke-width="5" stroke-linecap="butt"/><path d="M179.12489,329.85365c0,0 -15.81907,-12.70226 -31.05899,-29.27478c-14.72912,-16.01706 -28.77812,-35.67711 -35.37761,-49.39986c-13.16936,-27.38391 -13.3701,-87.27263 -13.3701,-87.27263l2.53355,-16.89031l79.38444,9.28966l40.05499,76.35357l-2.28211,57.48908z" fill="#000000" stroke="#000000" stroke-width="5" stroke-linecap="butt"/><path d="M127.21908,81.7599l142.70534,55.63067l-15.64613,37.61689l-156.1955,-20.93584c0,0 7.23618,-28.10758 10.01919,-37.84393c0.52796,-1.84707 19.11709,-34.46779 19.11709,-34.46779z" fill="#49e320" stroke="#000000" stroke-width="0" stroke-linecap="butt"/><path d="M316.40946,244.15732l-5.44684,134.35546" fill="none" stroke="#0091ff" stroke-width="5" stroke-linecap="round"/><path d="M344.55148,120.69553l58.09966,-121.64616" fill="none" stroke="#0091ff" stroke-width="5" stroke-linecap="round"/><path d="M244.62304,180.00002c0,-36.78359 33.74742,-66.60258 75.37696,-66.60258c41.62955,0 75.37696,29.81899 75.37696,66.60258c0,36.78359 -33.74742,66.60258 -75.37696,66.60258c-41.62955,0 -75.37696,-29.81899 -75.37696,-66.60258z" fill="#000000" stroke="#000000" stroke-width="5" stroke-linecap="butt"/><path d="M297.71797,146.40676l-167.76125,-66.06142" fill="none" stroke="#000000" stroke-width="5" stroke-linecap="round"/><path d="M96.41842,180.21682c0,-109.3183 100.29501,-197.93829 224.01517,-197.93829c123.72016,0 224.01517,88.61999 224.01517,197.93829c0,109.3183 -100.29501,197.93829 -224.01517,197.93829c-123.72016,0 -224.01517,-88.61999 -224.01517,-197.93829z" fill="none" stroke="#000000" stroke-width="5" stroke-linecap="butt"/><path d="M323.67192,113.43309l-27.23422,-71.71676" fill="none" stroke="#000000" stroke-width="5" stroke-linecap="round"/><path d="M529.74414,97.09256l-59.91528,133.44765" fill="none" stroke="#000000" stroke-width="5" stroke-linecap="round"/><path d="M97.05445,162.62862l93.07053,10.34117l33.40992,58.06965l-3.08004,59.85365c0,0 -19.03303,19.03304 -27.00053,27.00054c-6.32731,6.32731 -17.02811,17.02811 -17.02811,17.02811" fill="none" stroke="#000000" stroke-width="5" stroke-linecap="round"/><path d="M304.67332,244.56251l-26.25066,65.22892" fill="none" stroke="#000000" stroke-width="5" stroke-linecap="round"/><path d="M382.62984,326.1291l1.59095,40.56921" fill="none" stroke="#000000" stroke-width="5" stroke-linecap="round"/></g></g></svg>