<svg version="1.1" xmlns="http://www.w3.org/2000/svg" xmlns:xlink="http://www.w3.org/1999/xlink" width="498.63992" height="144.04667" viewBox="0,0,498.63992,144.04667"><g transform="translate(-144.70424,-4.65065)"><g stroke-miterlimit="10"><path d="M148.73097,147.79459v-140.4902h491.31704v140.49021z" fill="#a9a9a9" stroke="none" stroke-width="0" stroke-linecap="butt"/><path d="M405.32297,53.757l16.95662,-10.59226l21.0176,4.09169" fill="none" stroke="#a605dc" stroke-width="5" stroke-linecap="round"/><path d="M380.09436,123.86402c0,0 -37.29175,9.22811 -53.83512,7.90446c-14.56606,-1.16544 -39.41388,-6.23159 -39.41388,-6.23159" fill="none" stroke="#a605dc" stroke-width="5" stroke-linecap="round"/><path d="M465.34446,7.15065l-138.77222,101.65976l-91.58922,-99.95354" fill="none" stroke="#000000" stroke-width="5" stroke-linecap="round"/><path d="M555.30118,144.89224v-88.38983h84.56106v88.38983z" fill="#49e320" stroke="#000000" stroke-width="0" stroke-linecap="butt"/><path d="M147.20424,146.19732v-138.99308h493.63992v138.99308z" fill="none" stroke="#000000" stroke-width="5" stroke-linecap="butt"/><path d="M148.49498,144.43111v-63.94231h6.73077c0,0 25.48077,13.83497 46.15385,25c7.59425,4.10147 72.49006,24.80889 109.50081,30.48095c3.78654,0.5803 38.08683,0.38935 73.8962,-7.62871c4.54277,-1.01717 57.79998,-57.10408 57.79998,-57.10408c0,0 68.61741,31.90192 96.49113,42.56207c30.75242,11.76109 96.15973,29.94471 96.15973,29.94471z" fill="#000000" stroke="none" stroke-width="0" stroke-linecap="butt"/><path d="M148.12502,78.50872c0,0 100.50065,53.67031 173.99971,55.87966c36.4053,1.09433 56.85756,-4.67945 63.08882,-9.19801c25.22713,-18.29326 57.20441,-54.43759 57.20441,-54.43759l164.28896,71.09665" fill="none" stroke="#000000" stroke-width="5" stroke-linecap="round"/><path d="M327.47342,107.13022l-89.75241,-99.03714l223.45254,1.23796l-102.44154,74.27785z" fill="#000000" stroke="none" stroke-width="0" stroke-linecap="butt"/><path d="M638.0147,83.4192l-214.48623,-43.61437" fill="none" stroke="#000000" stroke-width="5" stroke-linecap="round"/><path d="M424.34081,37.39417l38.71893,-29.2543l178.53728,-1.29063l-1.72084,75.71702z" fill="#000000" stroke="none" stroke-width="0" stroke-linecap="butt"/></g></g></svg>