<svg version="1.1" xmlns="http://www.w3.org/2000/svg" xmlns:xlink="http://www.w3.org/1999/xlink" width="81.16666" height="81.16668" viewBox="0,0,81.16666,81.16668"><g transform="translate(-349.41667,-139.41666)"><g stroke-miterlimit="10"><path d="M350.91667,180c0,-21.58513 17.4982,-39.08334 39.08333,-39.08334c21.58513,0 39.08333,17.4982 39.08333,39.08334c0,21.58513 -17.4982,39.08334 -39.08333,39.08334c-21.58513,0 -39.08333,-17.4982 -39.08333,-39.08334z" fill="#000000" stroke="#000000" stroke-width="3" stroke-linecap="butt" stroke-linejoin="miter"/><path d="M391.28654,165.33982v-3.78064c0,-0.59528 0,-0.8929 0.08929,-1.14614c0.07873,-0.22364 0.20662,-0.42162 0.37181,-0.57579c0.18732,-0.17458 0.44025,-0.26869 0.94637,-0.45693l11.32153,-4.21064c0.91473,-0.3402 1.37222,-0.5103 1.73631,-0.4083c0.31854,0.08928 0.59464,0.31124 0.77141,0.62032c0.20173,0.35309 0.20173,0.891 0.20173,1.96684v9.51253c0,0.59528 0,0.89291 -0.08929,1.14615c-0.07873,0.22364 -0.20662,0.42162 -0.37181,0.57578c-0.18732,0.17458 -0.44025,0.26869 -0.94638,0.45693l-8.0635,2.99886M391.28654,181.43544v17.22531M391.28654,198.66075c0,3.96383 -4.03201,7.17721 -9.00576,7.17721c-4.97375,0 -9.00576,-3.21338 -9.00576,-7.17721c0,-3.96383 4.03201,-7.17721 9.00576,-7.17721c4.97375,0 9.00576,3.21338 9.00576,7.17721zM366.84233,154.16204l46.31535,51.67593" fill="none" stroke="#ffffff" stroke-width="5" stroke-linecap="round" stroke-linejoin="round"/></g></g></svg>