<svg version="1.1" xmlns="http://www.w3.org/2000/svg" xmlns:xlink="http://www.w3.org/1999/xlink" width="354.32635" height="372.90752" viewBox="0,0,354.32635,372.90752"><g transform="translate(-212.37861,17.61168)"><g data-paper-data="{&quot;isPaintingLayer&quot;:true}" fill-rule="nonzero" stroke-linejoin="miter" stroke-miterlimit="10" stroke-dasharray="" stroke-dashoffset="0" style="mix-blend-mode: normal"><path d="M219.49111,354.1348v-347.08871h344.10514v347.08872z" fill="#a9a9a9" stroke="none" stroke-width="0" stroke-linecap="butt"/><path d="M298.43242,188.10944c0,0 -66.69518,9.86737 -63.80692,-3.39887c0.95569,-4.38965 -1.35669,-19.06509 1.16491,-29.58376c3.89559,-16.25017 12.83956,-29.06825 12.83956,-29.06825l103.57571,-70.79132l19.51096,-47.0679h135.13856v107.2075c0,0 -18.24116,24.97065 -40.62154,30.51409c-26.29673,6.51349 -167.80123,42.18851 -167.80123,42.18851z" fill-opacity="0.5098" fill="#ff7070" stroke="none" stroke-width="0" stroke-linecap="butt"/><path d="M499.16513,69.89104l-21.22264,-61.93749" fill="none" stroke="#be00ff" stroke-width="5" stroke-linecap="round"/><path d="M260.17802,189.09461c0,0 -17.70316,-2.82029 -21.23962,-13.14132c-3.53775,-10.3248 7.48824,-36.72721 7.48824,-36.72721" fill="none" stroke="#be00ff" stroke-width="5" stroke-linecap="round"/><path d="M549.48029,208.82139l17.22467,68.06411l-105.45144,62.30017c0,0 -22.6384,-66.63492 -1.10061,-98.45925c21.53779,-31.82433 89.32738,-31.90502 89.32738,-31.90502z" fill-opacity="0.5098" fill="#ff7070" stroke="none" stroke-width="0" stroke-linecap="butt"/><path d="M280.85169,317.88863v-111.19129l73.78499,-25.88354l57.51897,138.99212z" fill-opacity="0.5098" fill="#ff7070" stroke="none" stroke-width="0" stroke-linecap="butt"/><path d="M223.4041,300.61888v-70.15767" fill="none" stroke="#00feff" stroke-width="7.5" stroke-linecap="round"/><path d="M222.91219,103.84919v-43.12264" fill="none" stroke="#ffad00" stroke-width="7.5" stroke-linecap="round"/><path d="M483.01872,8.35048h6.40044l71.04875,0.43273l1.7686,64.69589l-63.2167,-13.18661z" fill="#000000" stroke="#000000" stroke-width="5" stroke-linecap="butt"/><path d="M401.91432,300.3864l-34.33941,-87.99218" fill="none" stroke="#0091ff" stroke-width="5" stroke-linecap="round"/><path d="M218.12501,57.5599l240.12551,-16.02328l-87.82608,9.72798l-152.29549,17.65104" fill="none" stroke="#000000" stroke-width="5" stroke-linecap="round"/><path d="M536.68158,68.32357l-38.12192,-6.59333c0,0 -14.25456,72.87818 -46.3686,76.55174c-19.92377,2.2791 -146.7524,63.52391 -185.89685,57.6866c-14.44835,-2.15457 -22.11325,-8.74202 -29.80909,-15.93189c-28.134,-26.28431 -20.7246,-75.00258 -20.7246,-75.00258" fill="none" stroke="#000000" stroke-width="5" stroke-linecap="round"/><path d="M217.14747,303.19764h95.72368" fill="none" stroke="#000000" stroke-width="5" stroke-linecap="round"/><path d="M312.0839,301.5399h87.97393" fill="none" stroke="#a605dc" stroke-width="9" stroke-linecap="round"/><path d="M463.47184,350.86809v-95.63491h96.63619v95.63491z" fill="#49e320" stroke="#000000" stroke-width="0" stroke-linecap="butt"/><path d="M217.20424,352.79585v-345.59159h345.59159v345.59159z" fill="none" stroke="#000000" stroke-width="5" stroke-linecap="butt"/><path d="M396.00865,303.83646l67.65531,-46.80757" fill="none" stroke="#000000" stroke-width="5" stroke-linecap="round"/><path d="M217.85276,227.88203h100.50551l33.54568,57.60583l14.9956,-74.27526l133.15238,-32.43309l61.38952,75.85422" fill="none" stroke="#000000" stroke-width="5" stroke-linecap="round"/><path d="M218.41185,349.09071v-46.60031l175.92518,3.25119l69.33126,-44.99538l0.02733,89.78947z" fill="#000000" stroke="#000000" stroke-width="5" stroke-linecap="butt"/><path d="M218.53665,225.36175v-119.09676l36.6316,14.03235c0,0 -45.17968,61.92728 -4.37209,71.48411c17.71468,4.14864 190.94991,-48.39106 200.97515,-50.80652c25.56342,-6.15918 48.72535,-78.55676 48.72535,-78.55676l59.69382,11.50004l1.29066,180.78465l-60.99868,-77.19383l-136.06282,32.2637l-13.24409,71.10457l-32.66317,-55.51555z" fill="#000000" stroke="#000000" stroke-width="5" stroke-linecap="butt"/><path d="M219.43356,68.60659l-0.60415,-10.5726l148.90493,-9.25393z" fill="#000000" stroke="none" stroke-width="0" stroke-linecap="butt"/><text transform="translate(225.84178,-7.79895) scale(0.19441,0.19441)" font-size="40" xml:space="preserve" fill="#ffffff" fill-rule="nonzero" stroke="none" stroke-width="1" stroke-linecap="butt" stroke-linejoin="miter" stroke-miterlimit="10" stroke-dasharray="" stroke-dashoffset="0" font-family="&quot;Grand9K Pixel&quot;, Pixel" font-weight="normal" text-anchor="start" style="mix-blend-mode: normal"><tspan x="0" dy="0">You get to do this again</tspan></text><text transform="translate(239.98651,2.06947) scale(0.19441,0.19441)" font-size="40" xml:space="preserve" fill="#ffffff" fill-rule="nonzero" stroke="none" stroke-width="1" stroke-linecap="butt" stroke-linejoin="miter" stroke-miterlimit="10" stroke-dasharray="" stroke-dashoffset="0" font-family="&quot;Grand9K Pixel&quot;, Pixel" font-weight="normal" text-anchor="start" style="mix-blend-mode: normal"><tspan x="0" dy="0">But with a twist</tspan></text></g></g></svg>