<svg version="1.1" xmlns="http://www.w3.org/2000/svg" xmlns:xlink="http://www.w3.org/1999/xlink" width="353.44444" height="350.59159" viewBox="0,0,353.44444,350.59159"><g transform="translate(-143.26053,-4.70426)"><g stroke-miterlimit="10"><path d="M149.49111,354.13479v-347.08871h344.10514v347.08872z" fill="#a9a9a9" stroke="none" stroke-width="0" stroke-linecap="butt"/><path d="M479.48029,208.82138l17.22467,68.06411l-105.45144,62.30017c0,0 -22.6384,-66.63492 -1.10061,-98.45925c21.53779,-31.82433 89.32738,-31.90502 89.32738,-31.90502z" fill-opacity="0.5098" fill="#ff7070" stroke="none" stroke-width="0" stroke-linecap="butt"/><path d="M210.85169,317.88862v-111.19129l73.78499,-25.88354l57.51897,138.99212z" fill-opacity="0.5098" fill="#ff7070" stroke="none" stroke-width="0" stroke-linecap="butt"/><path d="M301.71663,115.40683v-107.2075h135.13856v107.2075z" fill-opacity="0.5098" fill="#ff7070" stroke="none" stroke-width="0" stroke-linecap="butt"/><path d="M153.4041,230.46121v70.15767" fill="none" stroke="#00feff" stroke-width="7.5" stroke-linecap="round"/><path d="M152.91219,103.84919v-43.12264" fill="none" stroke="#ffad00" stroke-width="7.5" stroke-linecap="round"/><path d="M409.72458,12.49106v42.8166" fill="none" stroke="#be00ff" stroke-width="5" stroke-linecap="round"/><path d="M413.01872,65.95442v-57.60394h6.40044l71.04875,0.43273l1.7686,64.69589l-63.2167,-13.18661z" fill="#000000" stroke="#000000" stroke-width="5" stroke-linecap="butt"/><path d="M285.27423,48.89764v56.21542" fill="none" stroke="#0091ff" stroke-width="5" stroke-linecap="round"/><path d="M331.91432,300.38639l-34.33941,-87.99218" fill="none" stroke="#0091ff" stroke-width="5" stroke-linecap="round"/><path d="M149.51291,66.53141v-6.6311l223.62804,-14.63415l-17.37805,10.74695z" fill="#000000" stroke="#000000" stroke-width="5" stroke-linecap="butt"/><path d="M148.12501,57.5599l240.12551,-16.02328l-33.73535,16.12581l-206.38622,11.25321" fill="none" stroke="#000000" stroke-width="5" stroke-linecap="round"/><path d="M466.68158,68.32357l-38.12192,-6.59333c0,0 -70.67177,38.56255 -102.78581,42.23611c-54.16177,6.19563 -180.01332,1.06775 -180.01332,1.06775" fill="none" stroke="#000000" stroke-width="5" stroke-linecap="round"/><path d="M242.87115,303.19764h-95.72368" fill="none" stroke="#000000" stroke-width="5" stroke-linecap="round"/><path d="M242.0839,301.53991h87.97393" fill="none" stroke="#a605dc" stroke-width="9" stroke-linecap="round"/><path d="M393.47184,350.86808v-95.63491h96.63619v95.63491z" fill="#49e320" stroke="#000000" stroke-width="0" stroke-linecap="butt"/><path d="M147.20424,352.79585v-345.59159h345.59159v345.59159z" fill="none" stroke="#000000" stroke-width="5" stroke-linecap="butt"/><path d="M326.00865,303.83646l67.65531,-46.80757" fill="none" stroke="#000000" stroke-width="5" stroke-linecap="round"/><path d="M147.85276,227.88203h100.50551l33.54568,57.60583l14.9956,-74.27526l133.15238,-32.43309l61.38952,75.85422" fill="none" stroke="#000000" stroke-width="5" stroke-linecap="round"/><path d="M148.41185,349.0907v-46.60031l175.92518,3.25119l69.33126,-44.99538l0.02733,89.78947z" fill="#000000" stroke="#000000" stroke-width="5" stroke-linecap="butt"/><path d="M148.53665,225.36174v-119.09676l99.6316,1.03235c0,0 58.60696,5.5968 91.72636,-2.3829c25.56342,-6.15918 90.60204,-42.49627 90.60204,-42.49627l59.69382,11.50004l1.29066,180.78465l-60.99868,-77.19383l-136.06282,32.2637l-13.24409,71.10457l-32.66317,-55.51555z" fill="#000000" stroke="#000000" stroke-width="5" stroke-linecap="butt"/></g></g></svg>