<svg version="1.1" xmlns="http://www.w3.org/2000/svg" xmlns:xlink="http://www.w3.org/1999/xlink" width="400.97502" height="235.86581" viewBox="0,0,400.97502,235.86581"><g transform="translate(-214.70423,17.61167)"><g data-paper-data="{&quot;isPaintingLayer&quot;:true}" fill-rule="nonzero" stroke-linecap="butt" stroke-linejoin="miter" stroke-miterlimit="10" stroke-dasharray="" stroke-dashoffset="0" style="mix-blend-mode: normal"><path d="M295.8201,115.28623c0,-55.4869 44.98102,-100.46791 100.46791,-100.46791c55.4869,0 100.46791,44.98102 100.46791,100.46791c0,55.4869 -44.98102,100.46791 -100.46791,100.46791c-55.4869,0 -100.46791,-44.98102 -100.46791,-100.46791z" fill="none" stroke="#000000" stroke-width="5"/><path d="M219.49111,73.39312v-66.08872h392.07293v66.08872z" fill="#a9a9a9" stroke="none" stroke-width="0"/><path d="M569.80728,73.58573v-65.28347h42.13772v65.28347z" fill="#49e320" stroke="#000000" stroke-width="0"/><path d="M217.20424,74.79585v-67.59159h395.97502v67.59159z" fill="none" stroke="#000000" stroke-width="5"/><path d="M297.02331,115.28623c0,-54.82238 44.44232,-99.2647 99.2647,-99.2647c54.82238,0 99.2647,44.44232 99.2647,99.2647c0,54.82238 -44.44232,99.2647 -99.2647,99.2647c-54.82238,0 -99.2647,-44.44232 -99.2647,-99.2647z" fill="#a9a9a9" stroke="#000000" stroke-width="0"/><path d="M357.18372,115.28623c0,-21.5967 17.50758,-39.10428 39.10428,-39.10428c21.5967,0 39.10428,17.50758 39.10428,39.10428c0,21.5967 -17.50758,39.10428 -39.10428,39.10428c-21.5967,0 -39.10428,-17.50758 -39.10428,-39.10428z" fill="#000000" stroke="#000000" stroke-width="0"/><text transform="translate(225.84178,-7.79895) scale(0.19441,0.19441)" font-size="40" xml:space="preserve" fill="#ffffff" fill-rule="nonzero" stroke="none" stroke-width="1" stroke-linecap="butt" stroke-linejoin="miter" stroke-miterlimit="10" stroke-dasharray="" stroke-dashoffset="0" font-family="&quot;Grand9K Pixel&quot;, Pixel" font-weight="normal" text-anchor="start" style="mix-blend-mode: normal"><tspan x="0" dy="0">Spinny :O</tspan></text></g></g></svg>