<svg version="1.1" xmlns="http://www.w3.org/2000/svg" xmlns:xlink="http://www.w3.org/1999/xlink" width="351.5086" height="239.48048" viewBox="0,0,351.5086,239.48048"><g transform="translate(-144.70424,-4.70429)"><g stroke-miterlimit="10"><path d="M149.49111,241.11753v-233.8131h344.10514v233.81311z" fill="#a9a9a9" stroke="none" stroke-width="0" stroke-linecap="butt"/><path d="M146.30592,240.67494v-233.95688h344.30215v233.95688z" fill-opacity="0.5098" fill="#ff7070" stroke="none" stroke-width="0" stroke-linecap="butt"/><path d="M434.90605,240.68126v-55.64951h56.23215v55.64951z" fill="#49e320" stroke="#000000" stroke-width="0" stroke-linecap="butt"/><path d="M487.36993,128.9171v-94.92187" fill="none" stroke="#be00ff" stroke-width="8" stroke-linecap="round"/><path d="M247.32256,76.12563v-65.27123" fill="none" stroke="#0091ff" stroke-width="5" stroke-linecap="round"/><path d="M147.20424,241.68477v-234.48048h345.59159v234.48048z" fill="none" stroke="#000000" stroke-width="5" stroke-linecap="butt"/><path d="M148.125,78.92128l316.24,2.35027l-50.32675,15.64741h-264.65075" fill="none" stroke="#000000" stroke-width="5" stroke-linecap="round"/><path d="M490.54695,187.92959h-242.09812l-71.20303,-23.48512l227.89889,1.17513l88.56815,-30.99885" fill="none" stroke="#000000" stroke-width="5" stroke-linecap="round"/><path d="M152.85869,213.62845v-94.92187" fill="none" stroke="#be00ff" stroke-width="8" stroke-linecap="round"/><path d="M149.91836,95.22246v-11.84795h267.3194l27.85117,-0.06182l-32.39922,12.70074z" fill="#000000" stroke="#000000" stroke-width="5" stroke-linecap="butt"/><path d="M248.33319,187.01677l-58.62684,-21.24962l215.97919,-1.23733l84.8282,-28.5993l0.51793,50.45774z" fill="#000000" stroke="none" stroke-width="0" stroke-linecap="butt"/></g></g></svg>